<svg width="22" height="14" viewBox="0 0 22 14" fill="none" xmlns="http://www.w3.org/2000/svg">
<path d="M13 2.5C13 2.30109 13.079 2.11032 13.2197 1.96967C13.3603 1.82902 13.5511 1.75 13.75 1.75H19.75C19.9489 1.75 20.1397 1.82902 20.2803 1.96967C20.421 2.11032 20.5 2.30109 20.5 2.5C20.5 2.69891 20.421 2.88968 20.2803 3.03033C20.1397 3.17098 19.9489 3.25 19.75 3.25H13.75C13.5511 3.25 13.3603 3.17098 13.2197 3.03033C13.079 2.88968 13 2.69891 13 2.5ZM10.75 9.8125C10.75 10.8568 10.3352 11.8583 9.59673 12.5967C8.85831 13.3352 7.85679 13.75 6.8125 13.75H1C0.801088 13.75 0.610322 13.671 0.46967 13.5303C0.329018 13.3897 0.25 13.1989 0.25 13V1C0.25 0.801088 0.329018 0.610322 0.46967 0.46967C0.610322 0.329018 0.801088 0.25 1 0.25H6.4375C7.15482 0.250763 7.8552 0.468054 8.44699 0.873436C9.03878 1.27882 9.49441 1.85341 9.75426 2.52201C10.0141 3.19062 10.0661 3.92209 9.90332 4.62071C9.74058 5.31932 9.37074 5.95254 8.84219 6.4375C9.42432 6.78769 9.90595 7.28253 10.2403 7.87393C10.5746 8.46532 10.7502 9.13315 10.75 9.8125ZM1.75 5.875H6.4375C6.98451 5.875 7.50911 5.6577 7.89591 5.27091C8.2827 4.88411 8.5 4.35951 8.5 3.8125C8.5 3.26549 8.2827 2.74089 7.89591 2.35409C7.50911 1.9673 6.98451 1.75 6.4375 1.75H1.75V5.875ZM9.25 9.8125C9.25 9.4924 9.18695 9.17544 9.06446 8.87971C8.94196 8.58398 8.76241 8.31527 8.53607 8.08893C8.30973 7.86258 8.04102 7.68304 7.74529 7.56054C7.44956 7.43805 7.1326 7.375 6.8125 7.375H1.75V12.25H6.8125C7.1326 12.25 7.44956 12.187 7.74529 12.0645C8.04102 11.942 8.30973 11.7624 8.53607 11.5361C8.76241 11.3097 8.94196 11.041 9.06446 10.7453C9.18695 10.4496 9.25 10.1326 9.25 9.8125ZM21.25 9.25C21.25 9.44891 21.171 9.63968 21.0303 9.78033C20.8897 9.92098 20.6989 10 20.5 10H13.8438C13.9849 10.5473 14.2778 11.0435 14.6887 11.4316C15.0996 11.8196 15.6118 12.0838 16.1662 12.1935C16.7206 12.3032 17.2948 12.2541 17.8225 12.0518C18.3502 11.8495 18.8101 11.5022 19.1491 11.05C19.2082 10.9712 19.2823 10.9048 19.3671 10.8547C19.4519 10.8045 19.5458 10.7716 19.6433 10.7577C19.7409 10.7438 19.8402 10.7493 19.9356 10.7738C20.0311 10.7983 20.1207 10.8413 20.1995 10.9005C20.2783 10.9596 20.3447 11.0337 20.3949 11.1185C20.445 11.2033 20.478 11.2972 20.4919 11.3947C20.5057 11.4923 20.5003 11.5916 20.4758 11.687C20.4513 11.7825 20.4082 11.8721 20.3491 11.9509C19.7077 12.8055 18.7832 13.404 17.7409 13.6392C16.6987 13.8745 15.6067 13.7313 14.6604 13.2351C13.7141 12.739 12.9752 11.9223 12.576 10.9312C12.1767 9.94015 12.1431 8.83935 12.4812 7.82577C12.8193 6.8122 13.507 5.952 14.4213 5.39908C15.3356 4.84616 16.4168 4.6366 17.4714 4.80789C18.5261 4.97919 19.4854 5.52017 20.1777 6.33403C20.87 7.14789 21.2501 8.18153 21.25 9.25ZM19.6562 8.5C19.491 7.85469 19.1157 7.28272 18.5895 6.87427C18.0633 6.46582 17.4161 6.24412 16.75 6.24412C16.0839 6.24412 15.4367 6.46582 14.9105 6.87427C14.3843 7.28272 14.009 7.85469 13.8438 8.5H19.6562Z" fill="#212121"/>
</svg>
