<svg width="64" height="20" viewBox="0 0 64 20" fill="none" xmlns="http://www.w3.org/2000/svg">
<path d="M6.76198 19.322C3.31599 19.322 0.5 16.6029 0.5 12.608V12.5578C0.5 8.83921 3.04987 5.84375 6.5203 5.84375C10.2351 5.84375 12.3451 8.96206 12.3451 12.3819C12.3451 12.9067 11.9323 13.2808 11.4707 13.2808H2.39271C2.65884 16.0753 4.57599 17.647 6.81086 17.647C8.36414 17.647 9.50463 17.0245 10.4279 16.1506C10.5746 16.025 10.7429 15.9273 10.9629 15.9273C11.4245 15.9273 11.7884 16.3014 11.7884 16.7509C11.7884 16.9742 11.6907 17.2003 11.4979 17.3734C10.3085 18.5487 8.89912 19.322 6.76198 19.322ZM10.4768 11.8598C10.2813 9.51479 8.97241 7.46851 6.47142 7.46851C4.28543 7.46851 2.63711 9.34174 2.39271 11.8598H10.4768Z" fill="#212121"/>
<path d="M26.5254 12.6331V12.5829C26.5254 8.93976 29.2925 5.84375 33.0807 5.84375C36.8444 5.84375 39.6115 8.88949 39.6115 12.5326V12.5829C39.6115 16.226 36.8199 19.322 33.0318 19.322C29.2681 19.322 26.5254 16.2763 26.5254 12.6331ZM37.6916 12.6331V12.5829C37.6916 9.81353 35.6767 7.54109 33.0318 7.54109C30.3136 7.54109 28.4426 9.81076 28.4426 12.5326V12.5829C28.4426 15.3522 30.4331 17.5996 33.078 17.5996C35.7989 17.5996 37.6916 15.355 37.6916 12.6331Z" fill="#212121"/>
<path d="M41.2137 15.603V7.81696H40.1927C39.7555 7.81696 39.3672 7.41774 39.3672 6.9683C39.3672 6.49372 39.7555 6.11963 40.1927 6.11963H41.2137V3.0739C41.2137 2.54907 41.602 2.09961 42.137 2.09961C42.6475 2.09961 43.0847 2.54907 43.0847 3.0739V6.11963H46.3379C46.7995 6.11963 47.1879 6.51884 47.1879 6.9683C47.1879 7.44288 46.7995 7.81696 46.3379 7.81696H43.0847V15.3545C43.0847 16.9262 43.9347 17.5013 45.1974 17.5013C45.8518 17.5013 46.1912 17.3255 46.3379 17.3255C46.7751 17.3255 47.139 17.6995 47.139 18.149C47.139 18.498 46.9217 18.7743 46.604 18.8972C46.0691 19.1205 45.488 19.2461 44.7602 19.2461C42.7426 19.2461 41.2137 18.2244 41.2137 15.603Z" fill="#212121"/>
<path d="M54.0303 19.322C50.5816 19.322 47.7656 16.6029 47.7656 12.608V12.5578C47.7656 8.83921 50.3155 5.84375 53.7859 5.84375C57.5007 5.84375 59.6107 8.96206 59.6107 12.3819C59.6107 12.9067 59.1979 13.2808 58.7363 13.2808H49.6583C49.9245 16.0753 51.8416 17.647 54.0765 17.647C55.6298 17.647 56.7703 17.0245 57.6935 16.1506C57.8402 16.025 58.0085 15.9273 58.2285 15.9273C58.6901 15.9273 59.054 16.3014 59.054 16.7509C59.054 16.9742 58.9563 17.2003 58.7634 17.3734C57.5768 18.5487 56.1674 19.322 54.0303 19.322ZM57.7451 11.8598C57.5524 9.51479 56.2407 7.46851 53.7398 7.46851C51.5538 7.46851 49.9027 9.34174 49.661 11.8598H57.7451Z" fill="#212121"/>
<path d="M61.6309 1.65301C61.6309 1.12817 62.0436 0.678711 62.5541 0.678711C63.089 0.678711 63.5018 1.12817 63.5018 1.65301V18.1742C63.5018 18.7242 63.1135 19.1485 62.5786 19.1485C62.0436 19.1485 61.6309 18.7242 61.6309 18.1742V1.65301Z" fill="#212121"/>
<path d="M24.3923 19.3074C23.545 19.313 22.8363 18.7072 22.6625 17.8502C22.4887 16.9931 22.1574 16.2114 21.5845 15.5526C20.433 14.2266 18.4453 14.2322 17.2994 15.5665C16.7481 16.2114 16.4114 16.968 16.2457 17.8027C16.0747 18.6569 15.4012 19.2907 14.5947 19.3158C13.704 19.3437 12.979 18.7937 12.7807 17.9115C12.5499 16.8898 13.2044 15.9099 14.2335 15.7006C15.1758 15.5079 16.0285 15.0947 16.6666 14.3298C17.6225 13.1824 17.4758 11.4963 16.3598 10.5164C15.7244 9.95805 14.9857 9.62023 14.1765 9.44994C13.3129 9.26852 12.7264 8.5259 12.7373 7.59909C12.7481 6.75041 13.3863 6.01061 14.2226 5.87382C15.1812 5.71749 16.0421 6.36516 16.2457 7.36181C16.4358 8.29421 16.8132 9.14008 17.4976 9.8073C18.6055 10.8849 20.3136 10.8709 21.4242 9.79052C21.522 9.69564 21.6469 9.60628 21.7745 9.5672C22.0542 9.4779 22.3448 9.6147 22.486 9.86593C22.6353 10.1311 22.5973 10.4466 22.3747 10.6755C22.0406 11.0189 21.799 11.4209 21.6876 11.8927C21.4188 13.0568 21.7664 14.0144 22.6625 14.7597C23.2762 15.2706 23.9903 15.5638 24.7589 15.7341C25.6061 15.9211 26.1981 16.6944 26.1601 17.5738C26.1221 18.4755 25.4785 19.1985 24.6095 19.313C24.5389 19.3158 24.4656 19.3074 24.3923 19.3074Z" fill="#4DB961"/>
<path d="M26.1506 7.66075C26.1506 8.67691 25.3739 9.46975 24.3801 9.46975C23.4052 9.46975 22.634 8.66297 22.6367 7.64956C22.6367 6.65294 23.4161 5.85732 24.3937 5.85452C25.3712 5.84894 26.1506 6.65294 26.1506 7.66075Z" fill="#4DB961"/>
</svg>
