<svg width="22" height="17" viewBox="0 0 22 17" fill="none" xmlns="http://www.w3.org/2000/svg">
<path d="M6.38251 13.5958C6.38251 13.5276 6.83192 15.7135 7.60604 14.2617C7.84133 13.824 7.06721 16.144 7.06721 16.144C7.06721 16.144 6.30486 14.9393 6.38251 13.5958Z" fill="white"/>
<path d="M16.702 5.51332L15.5114 6.6145C15.3678 6.74862 15.2337 6.89215 15.0878 7.02391L13.5325 8.40979C13.2972 8.61215 13.0784 8.82862 12.8525 9.03568C12.7118 9.1748 12.5642 9.30673 12.4102 9.43097C12.3302 9.48979 12.2478 9.54391 12.1749 9.59803C12.102 9.65215 11.9961 9.69685 11.909 9.74627C11.822 9.79568 11.7914 9.74626 11.8384 9.64744C11.913 9.48256 12.0028 9.32501 12.1067 9.17685C12.3655 8.88274 12.669 8.62627 12.9514 8.34626C13.2337 8.06627 13.5302 7.80038 13.8337 7.53685C14.1937 7.21921 14.5255 6.84274 14.869 6.49215L16.0055 5.3345C16.2408 5.09921 16.4761 4.86391 16.6972 4.62862C17.0408 4.26156 17.4031 3.89921 17.7137 3.51568C17.9525 3.21525 18.1732 2.90098 18.3749 2.5745C18.4196 2.50391 18.4596 2.43097 18.5067 2.36274C18.5867 2.24038 18.6478 2.16509 18.7278 2.12744C18.8138 2.12903 18.8995 2.13689 18.9843 2.15097C19.0337 2.15097 19.0855 2.15097 19.1278 2.15097C19.1702 2.15097 19.2478 2.19803 19.2808 2.29685C19.2971 2.35739 19.3019 2.42044 19.2949 2.48274C19.2895 2.54322 19.271 2.60182 19.2408 2.6545C18.8764 3.29047 18.4232 3.87121 17.8949 4.37921C17.5137 4.76979 17.1161 5.14626 16.7184 5.52744L16.702 5.51332Z" fill="white"/>
<path d="M12.7506 12.2711C13.0495 12.3347 13.3412 12.417 13.6306 12.5064C13.7365 12.537 13.8448 12.5605 13.9506 12.5982C14.315 12.7355 14.6682 12.9007 15.0071 13.0923C15.1577 13.1794 15.313 13.2547 15.4636 13.3276C15.5639 13.379 15.6592 13.4397 15.7483 13.5088C15.8302 13.591 15.8999 13.6845 15.9554 13.7864C15.9906 13.8499 15.9342 13.8899 15.833 13.9158C15.7144 13.9488 15.5902 13.9568 15.4683 13.9394C15.4197 13.9288 15.374 13.9079 15.3342 13.8782L15.2118 13.7982L14.9506 13.6452L14.4142 13.3394C14.1827 13.2257 13.9387 13.1396 13.6871 13.0829C13.4142 13.0005 13.1365 12.9323 12.8565 12.8711C12.6824 12.8382 12.5083 12.8052 12.3318 12.7817L11.9318 12.737C11.7977 12.737 11.6636 12.7205 11.5295 12.7205C11.3228 12.7348 11.1175 12.7647 10.9154 12.8099C10.8706 12.8099 10.8259 12.8335 10.7812 12.8405C10.6142 12.8405 10.5459 12.8029 10.5106 12.6382C10.5106 12.6029 10.4871 12.5699 10.4801 12.5394C10.4599 12.4173 10.5289 12.298 10.6448 12.2547C10.831 12.1776 11.0293 12.1338 11.2306 12.1252C11.4343 12.1099 11.6388 12.1099 11.8424 12.1252C12.148 12.1476 12.4521 12.1876 12.753 12.2452L12.7506 12.2711Z" fill="white"/>
<path d="M14.4195 8.17001L11.323 10.5982C10.9466 10.8947 10.5889 11.2077 10.2101 11.5018C9.86696 11.7416 9.55132 12.0186 9.26892 12.3277C9.19571 12.4046 9.11707 12.4761 9.03363 12.5418C9.00775 12.5653 9.00304 12.5677 8.99598 12.57C8.98783 12.5768 8.9807 12.5847 8.97481 12.5935C8.95128 12.6241 8.92304 12.6571 8.89951 12.6924C8.79834 12.8335 8.72069 13.0077 8.62187 13.163C8.42792 13.5178 8.25888 13.8858 8.11598 14.2641L8.05951 14.4077L7.99363 14.5912L7.82187 15.0406C7.71834 15.33 7.62422 15.6194 7.52304 15.8382C7.45369 15.9894 7.36512 16.131 7.25951 16.2594C7.22025 16.3154 7.16422 16.3574 7.09951 16.3794H7.06187C7.06187 16.41 7.06187 16.3794 7.06187 16.3959H7.04304C7.02055 16.3887 6.99854 16.38 6.97716 16.37C6.93445 16.3489 6.89486 16.322 6.85951 16.29C6.82187 16.2594 6.79128 16.2288 6.75834 16.2006C6.72747 16.1652 6.69841 16.1283 6.67128 16.09C6.61602 16.0154 6.56647 15.9368 6.52304 15.8547C6.46999 15.7661 6.42283 15.6742 6.38187 15.5794C6.34736 15.4743 6.30971 15.3684 6.26892 15.2618C6.22187 15.1182 6.19363 14.9465 6.14657 14.7912L6.0854 14.5324C6.06187 14.4524 6.0454 14.3371 6.03363 14.2971L5.9654 13.9394C5.93638 13.8221 5.91827 13.7024 5.91128 13.5818L5.85951 12.8947C5.84859 12.7868 5.84466 12.6784 5.84775 12.57C5.84699 12.4778 5.83912 12.3857 5.82422 12.2947C5.82422 12.2453 5.82422 12.2218 5.82422 12.1912C5.82486 12.1567 5.83732 12.1235 5.85951 12.0971C5.95054 12.0075 6.09177 11.9938 6.19834 12.0641C6.41284 12.1797 6.59985 12.3402 6.74657 12.5347C6.91717 12.7558 7.03397 13.0136 7.08775 13.2877C7.10892 13.41 7.13716 13.523 7.14657 13.6547V14.1982C7.14657 14.2406 7.14657 14.2288 7.14657 14.2288C7.13677 14.2522 7.13677 14.2785 7.14657 14.3018C7.16069 14.3324 7.1701 14.3324 7.20069 14.3018L7.22657 14.2665C7.22657 14.2665 7.22657 14.2665 7.23834 14.2382L7.25245 14.1935L7.30892 14.0147C7.38892 13.7794 7.47363 13.5441 7.57245 13.3088C7.63128 13.1653 7.69245 13.0218 7.75834 12.8782C7.79363 12.8053 7.82657 12.7324 7.86422 12.6594C7.90187 12.5865 7.94892 12.5182 7.99363 12.4477C8.09066 12.2981 8.19839 12.1558 8.31598 12.0218C8.35892 11.9797 8.40451 11.9404 8.45245 11.9041L8.53951 11.8359C8.59775 11.788 8.65906 11.744 8.72304 11.7041C8.8501 11.6218 8.98422 11.5465 9.10422 11.4688L9.44069 11.1371L10.1113 10.5371L13.0619 7.93001L13.9725 7.1253C14.2783 6.86177 14.5842 6.59825 14.8877 6.33001C15.8077 5.5206 16.7301 4.70648 17.603 3.85942C17.9395 3.52766 18.2595 3.18648 18.5725 2.8406C18.8854 2.49472 19.1866 2.13472 19.4925 1.79354C19.6242 1.63589 19.7654 1.49472 19.9113 1.35119C20.1 1.15477 20.3135 0.983908 20.5466 0.842951C20.6194 0.801163 20.6991 0.772492 20.7819 0.758245C20.8601 0.750507 20.9389 0.750507 21.0172 0.758245C21.0807 0.758245 21.1489 0.758245 21.1936 0.758245C21.3183 0.77001 21.3089 1.17942 20.9936 1.67354C20.8807 1.86177 20.7583 2.03589 20.636 2.21707L20.4501 2.48766C20.3866 2.57707 20.3136 2.65707 20.2454 2.74177C19.9442 3.07903 19.643 3.40687 19.3419 3.7253C19.036 4.0406 18.7207 4.35119 18.4007 4.66648L17.4407 5.57472C16.4619 6.46413 15.465 7.3355 14.4501 8.18883L14.4195 8.17001Z" fill="white"/>
<path d="M15.6547 5.05476C14.8704 5.52535 14.0861 5.99593 13.3018 6.46652C13.0171 6.64064 12.7488 6.83829 12.4641 7.01005L9.45472 8.82888C9.00531 9.09476 8.57002 9.38652 8.14178 9.67593C7.59219 10.0509 7.01927 10.3904 6.42649 10.6924C6.24061 10.7842 6.21472 10.7065 6.29472 10.5183C6.42321 10.2285 6.6034 9.96462 6.82649 9.73946L7.20061 9.39358L7.38884 9.21711L7.5912 9.06182C7.861 8.85476 8.13394 8.6524 8.41002 8.45476C8.68767 8.25711 8.96296 8.05711 9.25472 7.87829C9.54649 7.69946 9.84061 7.51123 10.1465 7.35358C10.8641 6.95358 11.5441 6.43829 12.2453 5.98182C13.0171 5.48064 13.7983 4.99123 14.5747 4.49946L16.0147 3.59358C16.7371 3.12299 17.4735 2.68535 18.1794 2.20535C18.7277 1.83358 19.2477 1.43829 19.7888 1.06417C19.9088 0.981817 20.0241 0.894758 20.1465 0.828876C20.6171 0.54417 20.8524 0.565346 21.0406 0.697111C21.0875 0.724361 21.1323 0.755033 21.1747 0.788876C21.2359 0.847699 21.2312 0.932405 21.1747 1.04299C21.1094 1.18917 21.0149 1.32048 20.8971 1.42888C20.6877 1.64299 20.4547 1.81711 20.2265 2.01476C19.9983 2.21241 19.7559 2.39358 19.5206 2.58182C19.0374 2.95963 18.5322 3.30847 18.0077 3.62652C17.2359 4.12064 16.4453 4.59593 15.6547 5.08535V5.05476Z" fill="white"/>
<path d="M14.0393 13.1135C13.7439 13.0093 13.4421 12.9244 13.1358 12.8594C13.0228 12.8312 12.9005 12.8429 12.7922 12.8194C12.5922 12.7747 12.3899 12.7582 12.1828 12.7276C11.9759 12.7023 11.7677 12.6889 11.5593 12.6876C11.3751 12.6888 11.1918 12.7125 11.0134 12.7582C10.7911 12.8366 10.5574 12.878 10.3216 12.8806C10.244 12.8806 10.204 12.6806 10.2205 12.4806C10.2369 12.2806 10.3169 12.0735 10.4558 12.0359C10.9708 11.907 11.5072 11.8886 12.0299 11.9817C12.3428 12.0359 12.6699 12.01 12.9875 12.0547C13.336 12.1054 13.6799 12.1841 14.0158 12.29C14.2228 12.3582 14.4275 12.4241 14.6275 12.5017C14.9334 12.6123 15.2228 12.7629 15.5193 12.8923C15.7558 12.9811 15.9862 13.0857 16.2087 13.2053C16.2534 13.2382 16.3028 13.2665 16.3452 13.3041C16.4981 13.4523 16.5146 13.5394 16.4487 13.6806C16.4372 13.7112 16.4239 13.741 16.4087 13.77C16.329 13.865 16.1992 13.9014 16.0816 13.8617C15.9758 13.8382 15.8605 13.8265 15.7546 13.8076C15.6541 13.7867 15.5568 13.7527 15.4652 13.7065L14.9005 13.4712C14.6153 13.3478 14.323 13.2417 14.0252 13.1535L14.0393 13.1135Z" fill="white"/>
<path d="M19.3056 5.93229C19.1833 6.20758 19.0703 6.48758 18.9503 6.76758C18.8303 7.04758 18.715 7.32523 18.6021 7.60994C18.5197 7.81464 18.4656 8.03111 18.3856 8.23817C18.1033 8.96758 17.835 9.70641 17.6186 10.457C17.5291 10.8052 17.4397 11.1299 17.3691 11.4664C17.3268 11.6805 17.2891 11.897 17.2562 12.1111C17.2075 12.3176 17.1698 12.5265 17.1433 12.737C17.1433 12.8405 17.0868 12.8805 16.9691 12.7699C16.8184 12.5898 16.7228 12.3701 16.6939 12.137C16.6827 11.665 16.7095 11.1929 16.7739 10.7252C16.8621 10.268 16.9872 9.8187 17.148 9.3817C17.3386 8.85464 17.4468 8.28758 17.6186 7.73464C17.8091 7.13935 18.0091 6.55817 18.2491 5.96758C18.3927 5.61229 18.5456 5.2617 18.6962 4.90405C18.9315 4.36758 19.1856 3.84052 19.428 3.31347C19.5268 3.10876 19.6091 2.89935 19.6986 2.68994C19.7799 2.47654 19.8775 2.26967 19.9903 2.07111C20.0421 1.98405 20.0821 1.89229 20.1433 1.80758C20.3644 1.49464 20.5103 1.44052 20.7339 1.52758C20.7863 1.54409 20.8374 1.56454 20.8868 1.58876C21.0421 1.68052 21.0633 1.88523 20.9715 2.11817C20.8327 2.46876 20.7362 2.84523 20.5503 3.19111L20.0515 4.27347C19.8162 4.81935 19.555 5.37229 19.3315 5.93699L19.3056 5.93229Z" fill="white"/>
<path d="M11.6635 5.91357L7.99287 7.41946C7.54581 7.60299 7.11522 7.8171 6.66816 8.00063L4.31522 8.97004L4.02816 9.0924L3.88228 9.15828L3.76699 9.21004L3.51052 9.30887C3.33405 9.38181 3.1364 9.46416 2.92934 9.56063C2.88228 9.58181 2.83757 9.60299 2.79522 9.62652C2.77271 9.6373 2.75206 9.6516 2.73405 9.66887C2.74816 9.66887 2.77405 9.66887 2.79522 9.66887L3.06581 9.68769C3.25405 9.69946 3.44699 9.71122 3.6211 9.73005C3.67757 9.73005 3.73405 9.74181 3.78816 9.75122C3.80463 9.75122 3.80699 9.75122 3.83757 9.75122L3.93169 9.7724L4.11757 9.81475C4.36871 9.87428 4.61492 9.95294 4.85405 10.05C5.10563 10.1503 5.34295 10.2832 5.55993 10.4453C5.78834 10.6241 5.96265 10.8628 6.06346 11.1348C6.12699 11.3042 6.09875 11.3936 6.04699 11.41C5.99522 11.4265 5.8964 11.3795 5.75522 11.33C5.57702 11.2753 5.39094 11.2507 5.20463 11.2571C4.99479 11.2371 4.78748 11.1961 4.58581 11.1348C4.3838 11.0719 4.17786 11.0223 3.96934 10.9865C3.8611 10.9677 3.75287 10.9489 3.64228 10.9348L3.55757 10.9206L3.37405 10.8948C3.24699 10.8948 3.11287 10.8806 2.9811 10.8736L2.59287 10.8265L2.19052 10.7865L1.77405 10.7536L1.56463 10.7395C1.50118 10.7372 1.43811 10.7285 1.3764 10.7136C1.21189 10.681 1.05626 10.6136 0.919928 10.5159C0.841195 10.4698 0.782475 10.396 0.755222 10.3089C0.739452 10.253 0.732311 10.1951 0.734045 10.1371C0.737838 10.1043 0.737838 10.0711 0.734045 10.0383C0.729277 10.0063 0.729277 9.97379 0.734045 9.94181C0.758058 9.76318 0.840839 9.59761 0.969339 9.47122C1.09552 9.33665 1.24549 9.22656 1.41169 9.14651L1.48699 9.10651L1.61405 9.07357C1.69405 9.0524 1.78816 9.03122 1.84934 9.01005L2.19287 8.86416L2.85405 8.59122L3.17405 8.47357L3.32228 8.4124L3.39052 8.38652L3.43287 8.37004C4.53875 7.9324 5.63052 7.35828 6.72699 6.85946L10.3952 5.22887L12.6376 4.2171C13.7623 3.69946 14.9129 3.22416 16.0164 2.67828C16.4446 2.46887 16.8611 2.24299 17.2729 2.0124L18.5176 1.35828C18.7011 1.26181 18.8752 1.16063 19.0611 1.06652C19.247 0.972398 19.374 0.911221 19.494 0.857104C19.598 0.817177 19.705 0.785702 19.814 0.762986C19.9503 0.731348 20.0919 0.731348 20.2282 0.762986C20.2811 0.772752 20.3345 0.77982 20.3882 0.784162C20.4682 0.795927 20.4635 0.901809 20.374 1.05004C20.2432 1.25015 20.0848 1.43076 19.9035 1.58652C19.1976 2.11593 18.4729 2.60534 17.7152 3.07593C16.9388 3.50652 16.1388 3.90887 15.3317 4.30416C14.7317 4.59357 14.1458 4.88769 13.5199 5.15828L11.6776 5.94416L11.6635 5.91357Z" fill="white"/>
</svg>
