<svg width="65" height="62" viewBox="0 0 65 62" fill="none" xmlns="http://www.w3.org/2000/svg">
<path fill-rule="evenodd" clip-rule="evenodd" d="M63.9146 5.17422C62.4346 8.77389 60.0487 12.1189 56.5415 13.9473C55.9509 14.2554 55.3805 13.5341 55.824 13.0309C57.2469 11.4174 58.5909 9.8058 59.7057 8.03841C57.7732 9.24513 55.2977 9.97585 53.4011 10.9376C50.2611 12.5296 47.1934 14.2629 44.2075 16.1269C38.1867 19.8841 32.5114 24.1746 27.2495 28.9371C16.7563 38.4347 8.36869 49.5391 1.10282 61.6348C0.97742 61.8443 0.680349 61.6725 0.775026 61.4546C6.4971 48.4038 15.5253 36.6218 25.9076 26.9278C31.0144 22.1596 36.5319 17.8188 42.3693 13.9798C45.4505 11.9535 48.6263 10.0718 51.8817 8.34007C54.203 7.10578 57.1189 5.06386 59.8791 4.79351C59.2124 4.53905 58.5453 4.28419 57.8786 4.03053C56.5856 3.5372 55.3496 3.24012 54.4435 2.15975C53.863 1.46833 54.2272 0.507761 55.1389 0.418692C56.5313 0.282754 57.6263 0.922034 58.8817 1.47103C60.3935 2.13154 61.9045 2.79205 63.4163 3.45256C64.0932 3.74878 64.1552 4.59027 63.9146 5.17422Z" fill="white"/>
</svg>
