<svg width="18" height="18" viewBox="0 0 18 18" fill="none" xmlns="http://www.w3.org/2000/svg">
<g clip-path="url(#clip0_40000071_93455)">
<g clip-path="url(#clip1_40000071_93455)">
<path d="M8.20902 1.01383C8.48085 0.279244 9.51983 0.279244 9.79165 1.01383L11.6003 5.90181C11.6858 6.13276 11.868 6.31485 12.0988 6.40031L16.9868 8.20902C17.7215 8.48085 17.7215 9.51983 16.9868 9.79165L12.0988 11.6003C11.868 11.6858 11.6858 11.868 11.6003 12.0988L9.79165 16.9868C9.51983 17.7215 8.48085 17.7215 8.20902 16.9868L6.40031 12.0988C6.31485 11.868 6.13276 11.6858 5.90181 11.6003L1.01383 9.79165C0.279244 9.51983 0.279244 8.48085 1.01383 8.20902L5.90181 6.40031C6.13276 6.31485 6.31485 6.13276 6.40031 5.90181L8.20902 1.01383Z" fill="#F25000"/>
</g>
</g>
<defs>
<clipPath id="clip0_40000071_93455">
<rect width="18" height="18" fill="white"/>
</clipPath>
<clipPath id="clip1_40000071_93455">
<rect width="18" height="18" fill="white"/>
</clipPath>
</defs>
</svg>
