<svg width="16" height="20" viewBox="0 0 16 20" fill="none" xmlns="http://www.w3.org/2000/svg">
<path d="M2.41501 15.903C2.41625 15.9122 2.41625 15.9215 2.41501 15.9307L2.41501 15.9508C2.41501 15.9508 2.41501 15.9759 2.44266 15.9809C2.4703 15.986 2.46025 15.9809 2.47533 15.9809C2.53224 16.0011 2.59433 16.0011 2.65125 15.9809C2.67135 15.9684 2.68141 15.9533 2.67638 15.9357C2.67135 15.9181 2.63366 15.8955 2.67638 15.8653C2.75732 15.8354 2.84179 15.8159 2.92769 15.8075C3.04833 15.8075 3.17901 15.8201 3.19409 15.8804C3.22112 15.9815 3.20665 16.0892 3.15388 16.1795C3.1133 16.2641 3.04503 16.3324 2.96037 16.373C2.86487 16.4132 2.80958 16.4911 2.70905 16.5288C2.60512 16.5723 2.49141 16.5871 2.37983 16.5715C2.31802 16.5619 2.25738 16.5459 2.19888 16.5238C2.11595 16.4936 2.05312 16.4459 1.97772 16.4233C1.9084 16.4156 1.83845 16.4156 1.76913 16.4233C1.75405 16.4233 1.73143 16.4233 1.72138 16.4233C1.71133 16.4233 1.69625 16.3428 1.81939 16.1719L1.89479 16.0664C1.96309 15.9734 2.04241 15.889 2.13102 15.8151C2.27679 15.7221 2.30946 15.7623 2.34967 15.7874C2.37217 15.8087 2.38864 15.8356 2.39742 15.8653L2.41501 15.903Z" fill="#414651"/>
<path d="M0.693975 18.2055C0.738625 18.2157 0.783997 18.2224 0.829685 18.2256C0.844764 18.2256 0.854816 18.2256 0.872409 18.2256C0.925835 18.2311 0.979817 18.2251 1.03074 18.208C1.05121 18.1984 1.06607 18.1799 1.07095 18.1578C1.08351 18.1301 1.07095 18.0975 1.1187 18.0874C1.18657 18.1041 1.25173 18.1303 1.31221 18.1653C1.39514 18.2105 1.47054 18.2759 1.45546 18.3086C1.40768 18.4285 1.30114 18.515 1.17399 18.5373C1.11089 18.5567 1.04882 18.5794 0.988014 18.6051C0.922781 18.6191 0.856194 18.6259 0.789474 18.6252L0.676383 18.6252C0.622047 18.6202 0.567363 18.6202 0.513028 18.6252C0.472817 18.6252 0.432607 18.6679 0.392396 18.6705L0.367265 18.6705C0.337107 18.6705 0.327054 18.6353 0.319515 18.5398L0.319515 18.4769C0.314509 18.4197 0.325837 18.3622 0.352186 18.3111C0.389883 18.2709 0.425067 18.2156 0.457738 18.208C0.487541 18.1957 0.518788 18.1873 0.550725 18.1829C0.598475 18.1829 0.646225 18.1829 0.691462 18.1829L0.693975 18.2055Z" fill="#414651"/>
<path d="M3.33507 16.82C3.27926 16.8799 3.21385 16.93 3.14156 16.9683L3.03349 17.0261L2.91286 17.0613L2.79474 17.094L2.68919 17.094C2.6198 17.1002 2.54999 17.1002 2.4806 17.094C2.37845 17.0985 2.27616 17.0892 2.17651 17.0663C2.0037 17.0095 1.85156 16.9028 1.73922 16.7597C1.62064 16.6215 1.54392 16.4524 1.51806 16.2722C1.4888 16.0986 1.52268 15.9203 1.61356 15.7695C1.70691 15.5815 1.90735 15.4712 2.11619 15.4931C2.174 15.4931 2.19159 15.659 2.19913 15.8223C2.20667 15.9857 2.21169 16.1465 2.19913 16.1666C2.18656 16.1867 2.19913 16.1817 2.19913 16.1842L2.16143 16.1717L2.13881 16.1465L2.11117 16.1314C2.09609 16.1314 2.12625 16.1314 2.13379 16.1314C2.14133 16.1314 2.24688 16.1088 2.21421 16.1314C2.20833 16.1562 2.20833 16.182 2.21421 16.2068C2.22139 16.2491 2.25138 16.2839 2.29211 16.2973C2.32981 16.3174 2.37254 16.3325 2.41526 16.3501C2.46527 16.3723 2.51894 16.3851 2.57359 16.3878C2.61824 16.3981 2.66465 16.3981 2.7093 16.3878C2.76606 16.3739 2.8111 16.3308 2.82742 16.2747C2.84683 16.1795 2.80965 16.0816 2.73192 16.0234C2.64829 15.9697 2.55785 15.9274 2.46301 15.8977C2.43984 15.8942 2.4171 15.8883 2.39515 15.8801C2.31473 15.8475 2.29211 15.8148 2.27704 15.7017C2.27704 15.6766 2.27704 15.6514 2.27704 15.6263C2.27704 15.5459 2.32227 15.4805 2.42531 15.4504C2.59015 15.4078 2.7631 15.4078 2.92794 15.4504C2.97405 15.4611 3.01875 15.4771 3.06114 15.4981L3.2069 15.5886C3.25393 15.6277 3.29688 15.6715 3.33507 15.7193C3.37779 15.7648 3.41338 15.8165 3.44063 15.8726C3.63794 16.1702 3.61008 16.5633 3.37277 16.8301L3.33507 16.82Z" fill="#414651"/>
<path d="M1.60757 18.891C1.41874 19.073 1.16337 19.1693 0.901377 19.1574C0.851114 19.1574 0.805877 19.1574 0.755614 19.1574C0.706587 19.1544 0.657858 19.1477 0.609852 19.1373C0.442297 19.0933 0.294978 18.9931 0.192668 18.8533C0.0940855 18.73 0.0306917 18.5824 0.00920796 18.4261C-0.0170457 18.2707 0.0132712 18.1111 0.0946552 17.9762C0.172024 17.8128 0.344815 17.7168 0.524404 17.7374C0.574667 17.7374 0.592259 17.9058 0.607338 18.0642C0.614848 18.1762 0.62827 18.2878 0.647549 18.3984C0.647549 18.4185 0.629957 18.3758 0.612365 18.3507C0.60274 18.3363 0.59086 18.3235 0.577181 18.313C0.571966 18.3065 0.566068 18.3006 0.559588 18.2954L0.549536 18.2878C0.53697 18.2878 0.562102 18.2878 0.567128 18.2878C0.584529 18.2915 0.602503 18.2915 0.619904 18.2878L0.725457 18.2677C0.708664 18.2834 0.696494 18.3034 0.690272 18.3255C0.67268 18.3909 0.735509 18.3959 0.77572 18.4135C0.835184 18.4445 0.903463 18.4543 0.969232 18.4411C1.00843 18.4281 1.03918 18.3974 1.05217 18.3582C1.07153 18.2833 1.04251 18.2042 0.979285 18.1597C0.92479 18.1274 0.861162 18.1142 0.798338 18.122C0.78413 18.1233 0.769822 18.1233 0.755614 18.122C0.702838 18.1019 0.68022 18.0616 0.67268 17.9511L0.67268 17.8782C0.66619 17.7962 0.718983 17.7213 0.798338 17.6997C0.880371 17.6747 0.964477 17.657 1.04965 17.647C1.15325 17.6701 1.25491 17.7012 1.35374 17.74C1.40861 17.7554 1.46045 17.78 1.50705 17.8128L1.61511 17.9234C1.67834 17.9982 1.72847 18.0832 1.76339 18.1747C1.8193 18.2957 1.8343 18.4315 1.80611 18.5618C1.7903 18.6926 1.73306 18.815 1.64276 18.9111L1.60757 18.891Z" fill="#414651"/>
<path d="M11.0422 7.06217C10.4542 7.6469 9.8753 8.24336 9.30566 8.85154C9.08701 9.06516 8.9136 9.31396 8.69496 9.52758C7.92845 10.2815 7.16696 11.0355 6.43312 11.8397C6.1039 12.1815 5.79981 12.5509 5.49823 12.9053C5.13031 13.3916 4.72712 13.8502 4.29191 14.2774C4.15118 14.4081 4.0607 14.3126 4.0406 14.094C4.00799 13.7881 4.06107 13.4792 4.1939 13.2018C4.78952 12.0935 5.38262 10.9777 6.2949 10.093C6.82266 9.5502 7.2323 8.87918 7.71483 8.27854C7.96614 7.94429 8.25516 7.62763 8.53914 7.31349L9.39613 6.37357L10.4642 5.22506C10.9995 4.64452 11.565 4.08409 12.0877 3.49098C12.2913 3.25977 12.4722 3.016 12.6733 2.78227C12.8743 2.54855 13.0528 2.29975 13.2739 2.07357C13.358 1.96851 13.4561 1.87549 13.5654 1.79712C14.0103 1.51565 14.239 1.52318 14.5154 1.71921C14.5789 1.7612 14.6402 1.8065 14.6989 1.85492C14.8748 2.01828 14.8472 2.32237 14.6989 2.65662C14.6411 2.77473 14.5858 2.90793 14.5305 3.04113C14.4712 3.16072 14.4005 3.27433 14.3194 3.3804C14.1686 3.60659 14.0178 3.83026 13.867 4.04388C13.5393 4.48114 13.1815 4.89513 12.7964 5.28286C12.2335 5.88099 11.6479 6.47661 11.0825 7.08982L11.0422 7.06217Z" fill="#414651"/>
<path d="M14.3874 3.39265C14.4019 3.15738 14.3659 2.92175 14.2819 2.70153C14.2426 2.61107 14.1911 2.52649 14.1286 2.45021C14.1286 2.4276 14.0808 2.37482 13.9778 2.33964C13.7842 2.29562 13.5854 2.2787 13.3872 2.28937C12.9462 2.28449 12.5059 2.32407 12.0728 2.40749C11.6179 2.49294 11.158 2.60352 10.6981 2.72164C10.2915 2.83853 9.89417 2.98553 9.50939 3.16144C9.02464 3.4073 8.52027 3.61241 8.0015 3.77465C7.83312 3.81737 7.75019 3.62888 7.79542 3.37757C7.83131 3.07558 7.99164 2.80228 8.23774 2.62362C8.72243 2.31499 9.22605 2.03715 9.74563 1.79177C10.2709 1.53153 10.8301 1.34626 11.4068 1.24139C11.7587 1.18107 12.108 1.08809 12.4749 1.00515C12.854 0.904359 13.2438 0.849514 13.636 0.841797C13.882 0.842036 14.127 0.874136 14.3648 0.937297C14.5014 0.974227 14.6337 1.02562 14.7594 1.0906C14.8923 1.15879 15.0156 1.24412 15.1263 1.34443C15.3102 1.51733 15.4677 1.71632 15.5937 1.93502C15.7177 2.14809 15.814 2.37612 15.8802 2.61357C16.0035 3.13789 16.0325 3.67998 15.9657 4.21445C15.8636 4.94982 15.7133 5.67768 15.5158 6.39335C15.3801 6.93368 15.3751 7.50417 15.2218 8.02439C15.1916 8.13999 15.1791 8.25811 15.1389 8.36869C14.9931 8.78587 14.8348 8.87132 14.405 8.84116C14.307 8.84116 14.209 8.84116 14.1135 8.81352C13.7952 8.75451 13.5665 8.47368 13.5732 8.15005C13.5598 7.88868 13.5598 7.62982 13.5732 7.37348L13.5882 6.99148C13.5983 6.86723 13.6168 6.74381 13.6435 6.62205C13.7541 6.14706 13.8948 5.68967 14.0205 5.24233C14.216 4.64251 14.326 4.01813 14.3472 3.38762L14.3874 3.39265Z" fill="#414651"/>
</svg>
