<svg width="113" height="34" viewBox="0 0 113 34" fill="none" xmlns="http://www.w3.org/2000/svg">
<mask id="mask0_40000323_55811" style="mask-type:luminance" maskUnits="userSpaceOnUse" x="0" y="0" width="113" height="35">
<path d="M113 0.000488281H0V34.0005H113V0.000488281Z" fill="white"/>
</mask>
<g mask="url(#mask0_40000323_55811)">
<path d="M11.2318 34.001C5.0509 34.001 0 29.042 0 21.7564V21.6647C0 14.883 4.57358 9.42004 10.7983 9.42004C17.4614 9.42004 21.246 15.1071 21.246 21.344C21.246 22.3011 20.5056 22.9834 19.6776 22.9834H3.39487C3.8722 28.0798 7.3109 30.9463 11.3195 30.9463C14.1055 30.9463 16.1512 29.8109 17.8072 28.2172C18.0703 27.9882 18.3722 27.81 18.7668 27.81C19.5948 27.81 20.2474 28.4922 20.2474 29.3119C20.2474 29.7192 20.0721 30.1317 19.7263 30.4473C17.5929 32.5907 15.0651 34.001 11.2318 34.001ZM17.8949 20.3919C17.5442 16.1151 15.1965 12.3832 10.7106 12.3832C6.78974 12.3832 3.83324 15.7995 3.39487 20.3919H17.8949Z" fill="white"/>
<path d="M46.6797 21.8022V21.7106C46.6797 15.0664 51.6429 9.42004 58.4376 9.42004C65.1884 9.42004 70.1516 14.9747 70.1516 21.6189V21.7106C70.1516 28.3548 65.1445 34.001 58.3499 34.001C51.5991 34.001 46.6797 28.4465 46.6797 21.8022ZM66.708 21.8022V21.7106C66.708 16.6599 63.094 12.5156 58.3499 12.5156C53.4743 12.5156 50.1185 16.6549 50.1185 21.6189V21.7106C50.1185 26.7611 53.6887 30.8598 58.4327 30.8598C63.3132 30.8598 66.708 26.7663 66.708 21.8022Z" fill="white"/>
<path d="M73.0269 27.2185V13.0187H71.1955C70.4113 13.0187 69.7148 12.2906 69.7148 11.471C69.7148 10.6055 70.4113 9.92321 71.1955 9.92321H73.0269V4.36855C73.0269 3.41138 73.7233 2.59167 74.6829 2.59167C75.5986 2.59167 76.3828 3.41138 76.3828 4.36855V9.92321H82.2178C83.0458 9.92321 83.7424 10.6513 83.7424 11.471C83.7424 12.3365 83.0458 13.0187 82.2178 13.0187H76.3828V26.7654C76.3828 29.6318 77.9073 30.6807 80.1722 30.6807C81.346 30.6807 81.9548 30.3599 82.2178 30.3599C83.002 30.3599 83.6548 31.0421 83.6548 31.8619C83.6548 32.4983 83.265 33.0023 82.6952 33.2263C81.7357 33.6336 80.6934 33.8627 79.388 33.8627C75.7691 33.8627 73.0269 31.9993 73.0269 27.2185Z" fill="white"/>
<path d="M96.014 34.001C89.8282 34.001 84.7773 29.042 84.7773 21.7564V21.6647C84.7773 14.883 89.351 9.42004 95.5756 9.42004C102.239 9.42004 106.023 15.1071 106.023 21.344C106.023 22.3011 105.283 22.9834 104.455 22.9834H88.1722C88.6496 28.0798 92.0882 30.9463 96.0968 30.9463C98.8829 30.9463 100.929 29.8109 102.585 28.2172C102.848 27.9882 103.15 27.81 103.544 27.81C104.372 27.81 105.025 28.4922 105.025 29.3119C105.025 29.7192 104.849 30.1317 104.504 30.4473C102.375 32.5907 99.8473 34.001 96.014 34.001ZM102.677 20.3919C102.331 16.1151 99.9787 12.3832 95.4929 12.3832C91.572 12.3832 88.6106 15.7995 88.177 20.3919H102.677Z" fill="white"/>
<path d="M109.646 1.77724C109.646 0.820072 110.387 0.000366211 111.303 0.000366211C112.262 0.000366211 113.002 0.820072 113.002 1.77724V31.9078C113.002 32.9108 112.306 33.6848 111.346 33.6848C110.387 33.6848 109.646 32.9108 109.646 31.9078V1.77724Z" fill="white"/>
<path d="M42.8535 33.9744C41.3339 33.9846 40.0627 32.8798 39.7509 31.3168C39.4392 29.7537 38.8449 28.3282 37.8173 27.1266C35.7521 24.7082 32.1868 24.7184 30.1314 27.152C29.1426 28.3282 28.5386 29.7079 28.2415 31.2302C27.9347 32.7881 26.7267 33.9439 25.2801 33.9897C23.6825 34.0406 22.3821 33.0376 22.0265 31.4287C21.6124 29.5653 22.7864 27.7783 24.6323 27.3964C26.3224 27.0451 27.8519 26.2916 28.9964 24.8965C30.7109 22.804 30.4479 19.7289 28.446 17.9417C27.3064 16.9235 25.9815 16.3074 24.53 15.9968C22.9811 15.666 21.9291 14.3116 21.9485 12.6213C21.968 11.0736 23.1127 9.72435 24.6128 9.47487C26.3321 9.18976 27.8762 10.3709 28.2415 12.1886C28.5824 13.8891 29.2594 15.4317 30.4868 16.6486C32.4741 18.6139 35.5378 18.5883 37.5299 16.618C37.7052 16.4449 37.9293 16.282 38.1582 16.2107C38.6599 16.0478 39.181 16.2973 39.4344 16.7555C39.7022 17.2391 39.6341 17.8145 39.2347 18.232C38.6355 18.8582 38.2021 19.5913 38.0024 20.4518C37.5202 22.5749 38.1436 24.3212 39.7509 25.6806C40.8517 26.6123 42.1326 27.147 43.5111 27.4575C45.0308 27.7986 46.0926 29.2089 46.0243 30.8127C45.9562 32.4572 44.8019 33.7759 43.2432 33.9846C43.1166 33.9897 42.9851 33.9744 42.8535 33.9744Z" fill="#3965BF"/>
<path d="M46.0077 12.7339C46.0077 14.5871 44.6147 16.033 42.8321 16.033C41.0835 16.033 39.7001 14.5617 39.7051 12.7135C39.7051 10.8959 41.1029 9.44485 42.8564 9.43975C44.6099 9.42957 46.0077 10.8959 46.0077 12.7339Z" fill="#3965BF"/>
</g>
</svg>
