<svg width="117" height="28" viewBox="0 0 117 28" fill="none" xmlns="http://www.w3.org/2000/svg">
<g clip-path="url(#clip0_40000331_64132)">
<path d="M93.1929 0.982142C93.3097 0.10317 94.6763 -0.291845 95.429 0.241817C95.5168 0.441504 95.4739 0.662119 95.4949 0.870527C95.1864 0.789431 94.872 0.727519 94.5485 0.735367C94.321 0.887966 94.0684 1.08591 94.1353 1.36669C94.291 1.77653 94.7202 2.0329 95.0297 2.34943C95.2144 2.35641 95.4011 2.36077 95.5887 2.366C95.5837 2.65812 95.5927 2.95024 95.5628 3.24148C95.3681 3.23451 95.1754 3.23189 94.9838 3.23189C94.9868 3.63999 94.9918 4.04895 94.9778 4.45705C94.2141 4.43961 93.4495 4.45094 92.6858 4.45356C92.9054 4.78317 93.181 5.33951 93.73 5.1686C94.1642 5.03344 94.6364 4.95321 95.0936 5.05088C95.422 5.17732 95.4679 5.52437 95.4929 5.79992C95.4649 6.15483 95.3611 6.52717 95.0766 6.794C94.85 7.0242 94.5336 7.15675 94.2371 7.30237C94.5985 7.56484 95.0507 7.70611 95.416 7.96422C95.1725 8.18309 94.9389 8.40981 94.7252 8.65048C94.1003 8.32174 93.4884 7.96073 92.9574 7.52124C92.5371 7.47328 92.038 7.52124 91.7125 7.23087C91.457 7.06519 91.474 6.76348 91.5039 6.5167C91.6357 6.24551 91.9541 6.12954 92.2696 6.09553C92.7717 6.14 93.1021 6.47572 93.4395 6.7565C93.9706 6.78528 94.4807 6.05716 94.0464 5.69179C93.735 5.7197 93.4665 5.91328 93.145 5.88712C92.3943 5.85747 91.8503 5.29678 91.5398 4.75004C91.3282 4.41694 91.4221 3.93385 91.8573 3.78038C92.3474 3.72457 92.8466 3.76643 93.3407 3.75945C93.5014 3.7455 93.6901 3.80043 93.8338 3.71149C93.8438 3.54756 93.8338 3.38362 93.8268 3.22056C92.7208 3.24672 91.6127 3.21097 90.5067 3.23712C90.4767 4.65761 90.4977 6.08071 90.4967 7.50206C90.0794 7.5038 89.6632 7.50206 89.2469 7.50642C89.2449 6.08158 89.2469 4.65673 89.2459 3.23189C88.8745 3.22666 88.5032 3.22666 88.1329 3.24061C88.1638 4.6611 88.1408 6.08332 88.1398 7.50468C87.7445 7.50468 87.3482 7.50467 86.9539 7.50119C86.9509 6.85853 86.941 6.21587 86.9579 5.57408C86.7723 5.60285 86.5836 5.61855 86.3969 5.61768C86.4548 6.11471 86.341 6.69198 85.8109 6.97189C85.1002 7.32504 84.1099 7.30848 83.4781 6.82626C82.8611 6.36672 82.3171 5.77638 82.1055 5.08576C82.395 4.97065 82.6964 4.87822 82.9799 4.75091C83.2824 5.15465 83.4301 5.64819 83.8404 5.9874C84.1139 6.18796 84.4683 6.36672 84.8387 6.31789C85.3138 6.18186 85.4396 5.56448 85.0523 5.29068C84.7848 5.05001 84.3815 5.10669 84.0371 5.10669C83.9263 4.92095 83.8284 4.72911 83.7286 4.53989C84.103 4.36898 84.5651 4.3123 84.8097 3.97658C84.8267 3.74288 84.7977 3.50047 84.5701 3.34787C84.074 3.29729 83.6797 3.58069 83.3792 3.88763C83.1965 3.599 83.0718 3.28683 82.8971 2.99558C83.5639 2.4471 84.6739 2.30147 85.4556 2.74706C86.1074 3.12115 86.2082 4.0568 85.6043 4.50152C85.8449 4.61837 86.0705 4.77358 86.341 4.83724C86.5417 4.81108 86.7832 4.79625 86.926 4.65325C86.9849 4.18673 86.922 3.71411 86.9649 3.24584C86.7243 3.23712 86.4858 3.23102 86.2472 3.21358C86.2502 2.92495 86.2502 2.63545 86.2592 2.34682C88.8486 2.37036 91.44 2.366 94.0285 2.34856C93.6391 1.96227 93.0582 1.56376 93.1929 0.982142Z" fill="#2384C5"/>
<path d="M100.229 0.237518C101 -0.0702971 101.931 0.00469441 102.657 0.373549C103.459 0.770307 103.986 1.49145 104.304 2.22654C104.336 3.98361 104.296 5.7433 104.324 7.50125C103.904 7.50648 103.485 7.50648 103.066 7.49951C103.082 6.07728 103.071 4.65418 103.071 3.23195C102.706 3.22847 102.342 3.23021 101.98 3.23021C101.967 4.65418 101.969 6.07815 101.979 7.50212C101.576 7.50561 101.175 7.50561 100.775 7.49951C100.773 6.82022 100.783 6.14006 100.771 5.45991C100.803 5.22011 100.466 5.34916 100.318 5.35178C100.075 5.08669 99.8892 4.78672 99.7235 4.48152C100.074 4.49984 100.425 4.50594 100.777 4.48763C100.778 4.0682 100.777 3.64964 100.771 3.23108C100.342 3.23631 99.9132 3.20841 99.4879 3.2398C99.3851 3.83014 99.6826 4.51292 99.2254 5.02478C99.0577 5.24365 98.7532 5.32562 98.4857 5.41195C98.9688 5.91247 99.447 6.41736 99.9162 6.92835C99.5957 7.14112 99.2723 7.34952 98.9539 7.56403C98.1782 6.54641 97.3157 5.57937 96.582 4.53646C96.8675 4.34549 97.166 4.16848 97.4615 3.9871C97.5863 4.22429 97.754 4.44839 98.0165 4.58704C98.0864 4.53297 98.1573 4.47891 98.2301 4.42484C98.2261 4.02373 98.2371 3.62348 98.2182 3.22236C97.8378 3.23108 97.4595 3.23195 97.0812 3.23108C97.0822 2.93896 97.0832 2.64772 97.0832 2.35647C97.9836 2.35734 98.885 2.37391 99.7854 2.34775C99.441 1.97889 99.3482 1.48709 99.456 1.02842C99.5768 0.687468 99.8692 0.403197 100.229 0.237518ZM100.771 0.960403C100.293 1.20107 100.306 1.86815 100.744 2.13585C101.202 2.42884 101.792 2.35211 102.324 2.36257C102.595 2.35473 102.898 2.41925 103.131 2.26055C102.916 1.85507 102.645 1.44785 102.206 1.19846C101.797 0.957787 101.251 0.74066 100.771 0.960403Z" fill="#2384C5"/>
<path d="M51.6919 4.3882C54.2663 2.83081 57.3699 1.96405 60.4973 1.89167C62.4729 1.85418 64.4514 1.89429 66.4279 1.86987C66.4409 4.48673 66.4309 7.10447 66.4329 9.72133C59.7886 9.73441 53.1443 9.72656 46.5 9.72307C47.615 7.57011 49.4688 5.72497 51.6919 4.3882Z" fill="#2384C5"/>
<path d="M0.000363345 2.31468C1.59855 2.33386 3.20073 2.26933 4.79592 2.36264C7.22564 2.34432 9.65735 2.38531 12.0871 2.34171C12.7429 3.19714 13.2989 4.10663 13.9178 4.98211C14.992 6.56566 16.079 8.14223 17.1442 9.73101C11.4312 9.7249 5.71829 9.7249 0.00535486 9.73013C-0.0056258 7.25802 0.00435631 4.78679 0.000363345 2.31468Z" fill="#2384C5"/>
<path d="M20.2539 2.32322C23.5511 2.30316 26.8493 2.31973 30.1475 2.3145C30.1385 4.78922 30.1654 7.26482 30.1335 9.73867C26.8493 9.71775 23.5641 9.72036 20.2799 9.73693C20.2389 7.26569 20.2878 4.79445 20.2539 2.32322Z" fill="#2384C5"/>
<path d="M32.9418 2.31443C36.3887 2.31443 39.8356 2.31356 43.2826 2.3153C43.2606 4.78305 43.2806 7.25167 43.2726 9.71942C39.8306 9.73861 36.3887 9.7168 32.9468 9.72989C32.9358 7.25777 32.9458 4.78654 32.9418 2.31443Z" fill="#2384C5"/>
<path d="M71.8233 2.36251C75.0527 2.35554 78.282 2.36426 81.5113 2.35815C81.5073 2.64853 81.5033 2.9389 81.5063 3.22928C81.2717 3.22928 81.0381 3.23015 80.8055 3.23713C80.8125 4.66197 80.8125 6.08594 80.8055 7.51078C80.4072 7.50032 80.0089 7.50381 79.6116 7.50119C79.6106 6.68675 79.6176 5.87317 79.6066 5.05873C79.1415 5.0657 78.6763 5.06396 78.2121 5.05873C78.2251 5.36916 78.2341 5.69354 78.0494 5.97171C77.8777 5.96735 77.672 6.03711 77.5353 5.91416C77.129 5.59937 76.7437 5.25231 76.4642 4.84334C76.3534 4.69859 76.3404 4.51547 76.3853 4.34892C76.5221 4.144 76.8245 4.14662 77.0621 4.14139C77.9126 4.14488 78.7631 4.14836 79.6136 4.13877C79.6146 3.83619 79.6126 3.53361 79.6096 3.23102C78.279 3.22841 76.9493 3.22753 75.6197 3.23277C75.6107 3.83183 75.6356 4.43176 75.6097 5.02995C75.5448 5.47554 75.0008 5.64296 74.5685 5.73104C74.2361 5.48165 73.8897 5.24621 73.5733 4.98112C73.8458 4.98199 74.1293 4.98112 74.3769 4.8634C74.3719 4.32189 74.3519 3.78038 74.3848 3.23974C73.9476 3.22405 73.5094 3.22928 73.0722 3.23625C73.0731 3.97048 73.0751 4.7047 73.0702 5.43892C73.8228 6.04234 74.6434 6.57774 75.408 7.16983C75.6147 7.32853 75.7534 7.56136 75.7305 7.80639C75.7534 8.21884 75.2843 8.47521 74.8909 8.58944C74.7232 8.58508 74.4897 8.63915 74.3868 8.49004C74.2411 8.32784 74.1193 8.15083 73.9935 7.97643C74.2481 8.02613 74.4986 7.95637 74.6114 7.74099C73.6951 7.05124 72.7457 6.39463 71.8184 5.71534C71.8343 4.59744 71.8243 3.47954 71.8233 2.36251Z" fill="#2384C5"/>
<path d="M71.7237 9.33238C72.2009 9.33936 72.6771 9.32976 73.1542 9.33848C73.9368 10.582 74.7494 11.8115 75.5839 13.0288C75.544 11.7993 75.5839 10.5689 75.557 9.33936C75.9902 9.33848 76.4245 9.33761 76.8587 9.32715C76.8637 11.1644 76.8797 13.0026 76.8507 14.8399C76.4045 14.8251 75.9583 14.8207 75.5131 14.8373C74.6306 13.5851 73.857 12.2736 72.9466 11.0371C73.0135 12.2989 72.9386 13.5633 72.9775 14.826C72.5583 14.8321 72.138 14.8294 71.7188 14.8242C71.7347 12.9939 71.7237 11.1627 71.7237 9.33238Z" fill="#2384C5"/>
<path d="M85.5996 9.33842C86.0338 9.33406 86.4681 9.33406 86.9023 9.33493C86.9013 9.6689 86.9033 10.0037 86.8873 10.3377C86.4601 10.336 86.0338 10.3369 85.6076 10.336C85.6006 10.0038 85.5996 9.67152 85.5996 9.33842Z" fill="#2384C5"/>
<path d="M103.068 9.33228C103.5 9.33664 103.931 9.33576 104.363 9.33315C104.372 11.1652 104.36 12.9973 104.37 14.8293C103.934 14.8293 103.498 14.8311 103.062 14.8232C103.083 12.9929 103.067 11.1626 103.068 9.33228Z" fill="#2384C5"/>
<path d="M82.8007 9.68736C83.215 9.68823 83.6293 9.68649 84.0445 9.67603C84.0535 10.0562 84.0505 10.4355 84.0505 10.8157C84.2971 10.8175 84.5446 10.8131 84.7932 10.8105C84.8022 11.0765 84.8032 11.3424 84.7952 11.6084C84.5456 11.604 84.2971 11.5996 84.0485 11.6049C84.0625 12.3749 84.0296 13.1457 84.0645 13.9148C84.2042 14.1284 84.5636 14.0229 84.7982 14.0465C84.7942 14.3212 84.8002 14.5958 84.8002 14.8705C84.2591 14.8426 83.6862 14.9568 83.1761 14.7563C82.9255 14.656 82.8087 14.3961 82.7987 14.1694C82.8027 13.3131 82.8097 12.4568 82.7977 11.6005C82.5851 11.5997 82.3745 11.5996 82.1638 11.5988C82.1419 11.3381 82.1439 11.0773 82.1668 10.8175C82.3785 10.8175 82.5921 10.8183 82.8057 10.8157C82.8067 10.4399 82.8047 10.0632 82.8007 9.68736Z" fill="#2384C5"/>
<path d="M89.4925 10.6492C90.1873 10.589 90.9519 10.6666 91.504 11.073C92.4852 11.8892 92.5731 13.3567 91.7665 14.2906C91.3023 14.8269 90.4838 15.01 89.7471 14.9603C89.0962 14.9717 88.4114 14.7476 88.0271 14.2732C87.3353 13.4544 87.3203 12.2502 87.9772 11.4104C88.3146 10.9657 88.8955 10.7093 89.4925 10.6492ZM89.2539 11.7479C88.8975 12.0086 88.8516 12.4385 88.7887 12.8126C88.8546 13.1143 88.8616 13.4448 89.0852 13.7003C89.4226 14.1267 90.1983 14.1651 90.6105 13.7997C90.907 13.5302 90.9709 13.1387 90.9939 12.7803C90.9609 12.3574 90.8451 11.8238 90.332 11.6528C89.9856 11.495 89.5664 11.5648 89.2539 11.7479Z" fill="#2384C5"/>
<path d="M78.8402 10.7597C79.5569 10.621 80.3375 10.6402 81.0233 10.8879C81.4436 11.0379 81.7081 11.432 81.7051 11.8235C81.7151 12.6362 81.7011 13.4498 81.7071 14.2634C81.7041 14.477 81.9157 14.6261 82.0146 14.8075C81.5304 14.8258 81.0353 14.8677 80.5571 14.7935C80.4932 14.6671 80.5192 14.5276 80.5082 14.3942C80.1109 14.709 79.6198 14.9932 79.0588 14.9636C78.4169 15.0046 77.7121 14.6723 77.5774 14.0916C77.5544 13.7332 77.5025 13.3347 77.7501 13.0225C78.0326 12.6074 78.6086 12.4889 79.1127 12.4043C79.524 12.3328 79.9911 12.3816 80.3515 12.1619C80.5821 11.9901 80.4044 11.6823 80.1499 11.6221C79.8424 11.5358 79.479 11.5061 79.1975 11.6657C79.0139 11.7651 78.9749 11.9639 78.8961 12.1244C78.4958 12.1209 78.0965 12.1296 77.6972 12.1165C77.6822 11.5035 78.1374 10.8992 78.8402 10.7597ZM79.0917 13.2396C78.902 13.3129 78.8571 13.5073 78.7753 13.6556C78.8162 13.7663 78.8551 13.8779 78.8941 13.9904C79.2644 14.2198 79.8184 14.1701 80.1489 13.9015C80.4743 13.6626 80.4423 13.2449 80.4683 12.9083C80.0311 13.0853 79.5279 13.0644 79.0917 13.2396Z" fill="#2384C5"/>
<path d="M94.2854 11.2236C94.5519 10.9917 94.8384 10.7484 95.2287 10.6978C95.6949 10.6664 96.201 10.6446 96.6143 10.8714C97.0545 11.0597 97.2731 11.4948 97.2821 11.9064C97.2821 12.8796 97.2701 13.8527 97.2841 14.8259C96.8499 14.8311 96.4156 14.8294 95.9824 14.825C95.9764 13.9225 95.9974 13.02 95.9734 12.1183C95.9504 11.5376 95.0011 11.439 94.6178 11.8061C94.3123 12.0555 94.3203 12.441 94.2874 12.7767C94.2804 13.4603 94.2824 14.1431 94.2884 14.8267C93.8711 14.8285 93.4548 14.8267 93.0386 14.8311C93.0396 13.4751 93.0326 12.1201 93.0426 10.765C93.4578 10.7737 93.8731 10.7711 94.2884 10.7798C94.2854 10.9272 94.2824 11.0754 94.2854 11.2236Z" fill="#2384C5"/>
<path d="M99.0651 10.8191C99.7599 10.6133 100.544 10.6316 101.242 10.8243C101.704 10.9333 102.108 11.2882 102.116 11.7225C102.132 12.5413 102.113 13.3601 102.122 14.1789C102.112 14.4178 102.312 14.6018 102.424 14.805C101.968 14.8494 101.509 14.8215 101.053 14.832C101.023 14.798 100.965 14.73 100.935 14.696C100.935 14.6184 100.935 14.4631 100.935 14.3855C100.516 14.757 99.9336 15.0204 99.3236 14.9611C98.7037 14.9567 98.0479 14.5599 97.988 13.994C97.954 13.6565 97.959 13.2912 98.1886 13.0017C98.4003 12.6747 98.8395 12.5517 99.2298 12.4593C99.706 12.3442 100.223 12.3895 100.684 12.2239C100.927 12.1122 100.919 11.8062 100.704 11.6762C100.361 11.5027 99.9046 11.5053 99.5682 11.6893C99.4384 11.8114 99.3795 11.9762 99.2947 12.1218C98.8964 12.1192 98.4981 12.1245 98.1018 12.121C98.1267 11.576 98.4502 11.0127 99.0651 10.8191ZM99.5413 13.2267C99.1929 13.3513 99.126 13.81 99.3915 14.0271C99.7888 14.2443 100.334 14.1257 100.657 13.8519C100.882 13.5868 100.889 13.2423 100.883 12.9267C100.445 13.0592 99.9675 13.0662 99.5413 13.2267Z" fill="#2384C5"/>
<path d="M0.0100023 10.717C2.93385 10.7493 5.8587 10.7214 8.78255 10.731C11.8122 10.724 14.8429 10.7441 17.8735 10.7205C18.5434 11.6387 19.1802 12.5753 19.8331 13.5022C20.0417 13.7952 20.2234 14.1047 20.4879 14.3637C20.42 13.1534 20.3132 11.9457 20.2523 10.7354C23.5485 10.7188 26.8457 10.7458 30.1419 10.7223C30.1559 12.0015 30.1439 13.2816 30.1479 14.5608C20.0986 14.5669 10.0493 14.5704 2.00483e-05 14.5591C0.00900422 13.2781 -0.0109608 11.998 0.0100023 10.717Z" fill="#2384C5"/>
<path d="M32.9514 10.718C36.3913 10.7477 39.8323 10.725 43.2722 10.7285C43.2712 12.0103 43.2842 13.2922 43.2662 14.5731C39.8243 14.5504 36.3823 14.5792 32.9414 14.5592C32.9504 13.2782 32.9314 11.9981 32.9514 10.718Z" fill="#2384C5"/>
<path d="M45.8189 11.2079C45.9038 11.0309 45.8898 10.6839 46.2073 10.7336C50.0225 10.7336 53.8378 10.7196 57.6521 10.7397C56.7936 11.4347 56.0539 12.2849 55.7804 13.2964C55.6197 13.7071 55.6107 14.1422 55.5358 14.5669C52.063 14.5608 48.5901 14.5695 45.1172 14.5625C45.219 13.4272 45.4197 12.2953 45.8189 11.2079Z" fill="#2384C5"/>
<path d="M85.5996 10.7712C86.0318 10.773 86.4651 10.7721 86.8993 10.7773C86.8973 12.1272 86.8943 13.477 86.9023 14.8269C86.4681 14.8313 86.0348 14.8295 85.6016 14.8243C85.6016 13.4736 85.6066 12.1228 85.5996 10.7712Z" fill="#2384C5"/>
<path d="M0.00136913 15.5688C9.97979 15.5688 19.9582 15.5688 29.9376 15.5688C30.0165 16.2045 30.0265 16.8455 30.0884 17.4829C30.0814 17.8831 30.1932 18.2781 30.1313 18.6784C24.0999 18.6418 18.0655 18.6923 12.0352 18.6531C11.3644 17.7462 10.7754 16.7896 10.1285 15.8697C10.0996 15.8557 10.0407 15.827 10.0117 15.813C10.1515 16.7609 10.1565 17.7209 10.2872 18.6705C6.86228 18.6662 3.43732 18.6575 0.0123498 18.6749C-0.0126062 17.6398 0.00935506 16.6039 0.00136913 15.5688Z" fill="#2384C5"/>
<path d="M32.9423 15.5688C36.3892 15.5697 39.8361 15.568 43.2831 15.5697C43.2641 16.6004 43.2731 17.632 43.2801 18.6627C39.8371 18.6758 36.3932 18.6548 32.9503 18.6732C32.9323 17.6381 32.9483 16.6039 32.9423 15.5688Z" fill="#2384C5"/>
<path d="M45.1523 15.5741C48.6582 15.5671 52.163 15.5627 55.6678 15.5758C55.8156 16.3981 56.2238 17.1785 56.8118 17.8317C57.0743 18.1351 57.4167 18.3758 57.7052 18.6601C53.7242 18.6827 49.7423 18.6444 45.7623 18.6801C45.3919 17.6756 45.2132 16.6257 45.1523 15.5741Z" fill="#2384C5"/>
<path d="M79.7182 15.9673C80.1944 15.5932 80.8772 15.6988 81.4622 15.7127C81.4572 16.0179 81.4582 16.324 81.4522 16.6292C81.3234 16.6048 81.1966 16.5786 81.0709 16.5516C80.9531 16.6187 80.7075 16.6187 80.7215 16.7844C80.7035 16.9108 80.7025 17.0373 80.7165 17.1637C80.975 17.2108 81.2436 17.1759 81.5081 17.182C81.5071 17.4436 81.5041 17.7052 81.5091 17.9677C81.2426 17.9668 80.976 17.966 80.7115 17.9668C80.7085 19.0586 80.7085 20.1503 80.7085 21.242C80.2773 21.242 79.846 21.2377 79.4158 21.2429C79.4058 20.1503 79.4208 19.0577 79.4058 17.9651C79.1902 17.966 78.9756 17.9668 78.7619 17.9686C78.7579 17.7087 78.7559 17.4497 78.752 17.1899C78.9696 17.1846 79.1882 17.1829 79.4078 17.1812C79.4108 16.7696 79.3878 16.2969 79.7182 15.9673Z" fill="#2384C5"/>
<path d="M71.6391 15.7424C72.0813 15.7442 72.5246 15.7424 72.9688 15.7442C72.9718 17.5771 72.9877 19.41 72.9628 21.243C72.5186 21.2421 72.0744 21.2378 71.6301 21.2439C71.6311 19.41 71.6132 17.5754 71.6391 15.7424Z" fill="#2384C5"/>
<path d="M106.061 15.6989C106.479 15.698 106.898 15.7015 107.318 15.7024C107.316 16.0355 107.317 16.3686 107.309 16.7017C106.893 16.7034 106.477 16.7025 106.062 16.7025C106.071 16.3677 106.068 16.0337 106.061 15.6989Z" fill="#2384C5"/>
<path d="M103.233 16.0425C103.644 16.046 104.055 16.0486 104.467 16.0495C104.465 16.4279 104.462 16.8072 104.472 17.1857C104.718 17.1848 104.964 17.1796 105.212 17.1778C105.216 17.4412 105.216 17.7045 105.214 17.9679C104.964 17.9705 104.716 17.9661 104.469 17.9644C104.479 18.7614 104.438 19.5601 104.488 20.3571C104.722 20.4278 104.967 20.4644 105.217 20.4339C105.215 20.7129 105.216 20.9928 105.212 21.2727C104.624 21.2684 103.946 21.3765 103.45 21.0329C103.137 20.7722 103.235 20.3545 103.218 20.0162C103.223 19.3369 103.214 18.6567 103.223 17.9774C103.007 17.9652 102.79 17.9635 102.575 17.9609C102.568 17.7028 102.566 17.4438 102.57 17.1857C102.777 17.1595 103.028 17.2519 103.211 17.1377C103.234 16.7723 103.204 16.407 103.233 16.0425Z" fill="#2384C5"/>
<path d="M75.8087 17.1813C76.4226 16.9642 77.1773 17.0052 77.7233 17.347C78.0887 17.5737 78.2204 17.9836 78.2125 18.3585C78.2075 19.3221 78.2174 20.2865 78.2075 21.2501C77.7762 21.2291 77.345 21.23 76.9137 21.2413C76.9107 20.3135 76.9307 19.3849 76.9067 18.4579C76.8079 17.844 75.7029 17.8153 75.4264 18.3297C75.3325 18.5024 75.2636 18.689 75.2666 18.8817C75.2567 19.6717 75.2846 20.4609 75.2527 21.2501C74.8274 21.2335 74.4032 21.2326 73.9789 21.2318C73.953 19.8697 73.9839 18.5076 73.9609 17.1456C74.3832 17.1351 74.8064 17.136 75.2287 17.1438C75.2197 17.306 75.2047 17.4682 75.1918 17.6304C75.4014 17.4865 75.5791 17.3043 75.8087 17.1813Z" fill="#2384C5"/>
<path d="M83.398 17.0932C84.0918 16.9476 84.8524 16.9912 85.4873 17.2868C86.0743 17.6147 86.4336 18.1911 86.5355 18.784C86.6073 19.4389 86.5165 20.1557 86.0174 20.6789C85.5761 21.2169 84.7686 21.3782 84.0518 21.3712C83.4748 21.3189 82.843 21.2186 82.4397 20.8193C81.6551 20.0632 81.5343 18.8573 82.1063 17.9757C82.3648 17.5353 82.842 17.1996 83.398 17.0932ZM83.9061 17.9766C83.5827 18.0332 83.3321 18.2547 83.2143 18.5163C83.0047 18.9907 83.0097 19.5479 83.2802 20.0022C83.5667 20.4801 84.3523 20.535 84.8215 20.242C85.1379 19.9874 85.2098 19.5932 85.2457 19.2366C85.2348 18.866 85.1729 18.4509 84.8414 18.1867C84.6079 17.9644 84.2295 17.9155 83.9061 17.9766Z" fill="#2384C5"/>
<path d="M88.9882 17.2623C89.2876 17.0705 89.6719 17.053 90.0283 17.0312C90.0503 17.4158 90.0413 17.8004 90.0423 18.1849C89.649 18.198 89.1768 18.1003 88.8774 18.3863C88.5629 18.6113 88.5669 18.9915 88.5449 19.315C88.536 19.9577 88.5509 20.6012 88.532 21.2447C88.1197 21.2447 87.7084 21.2386 87.2971 21.2386C87.2941 19.874 87.3181 18.5075 87.2852 17.1429C87.6825 17.1368 88.0808 17.1385 88.48 17.1368C88.491 17.3399 88.495 17.544 88.508 17.748C88.6557 17.578 88.7965 17.3984 88.9882 17.2623Z" fill="#2384C5"/>
<path d="M92.5301 17.1481C93.1909 16.9144 94.0544 17.0836 94.3978 17.6643C94.822 17.1891 95.5507 16.9249 96.2275 17.1071C96.8135 17.2048 97.2497 17.6844 97.2867 18.1945C97.2767 19.2095 97.2767 20.2254 97.2817 21.2412C96.8495 21.2439 96.4172 21.2378 95.986 21.2325C95.982 20.3318 95.984 19.431 95.985 18.5302C96.0069 18.2329 95.6755 17.9591 95.3351 18.0061C94.8869 17.9617 94.5804 18.3558 94.5814 18.7098C94.5874 19.5496 94.5864 20.3893 94.5854 21.229C94.1522 21.2447 93.719 21.2421 93.2867 21.2343C93.2967 20.4207 93.2827 19.6063 93.2947 18.7927C93.2877 18.5904 93.3077 18.3506 93.126 18.198C92.7736 17.8073 91.8902 18.0262 91.8932 18.5433C91.8842 19.4423 91.8912 20.3422 91.8892 21.2421C91.4579 21.2421 91.0267 21.2386 90.5965 21.2412C90.6054 19.8731 90.5655 18.5032 90.6074 17.1359C91.0028 17.1533 91.405 17.1054 91.7974 17.1655C91.8013 17.326 91.7844 17.4864 91.7844 17.6469C92.017 17.4646 92.2086 17.217 92.5301 17.1481Z" fill="#2384C5"/>
<path d="M98.5894 17.4577C99.1833 17.0409 100.003 16.9921 100.73 17.0906C101.173 17.1735 101.686 17.2799 101.941 17.6409C102.197 17.9836 102.108 18.4073 102.121 18.7928C102.129 19.4075 102.1 20.0232 102.136 20.637C102.142 20.8577 102.328 21.0242 102.44 21.2099C101.968 21.2518 101.491 21.257 101.02 21.2239C100.929 21.1105 100.965 20.9562 100.933 20.8289C100.587 21.0207 100.252 21.2658 99.8322 21.3137C99.3959 21.3399 98.9158 21.3713 98.5414 21.135C97.9475 20.8341 97.8586 20.1278 98.0663 19.6063C98.253 19.152 98.793 18.9009 99.3121 18.825C99.7882 18.7309 100.323 18.7936 100.754 18.5582C101.017 18.3986 100.825 18.0237 100.543 17.9914C100.25 17.9469 99.933 17.9295 99.6515 18.0237C99.4588 18.1196 99.4029 18.3158 99.3241 18.4815C98.9188 18.4911 98.5135 18.4972 98.1092 18.478C98.1192 18.3655 98.1322 18.2539 98.1461 18.1423C98.255 17.899 98.3458 17.6287 98.5894 17.4577ZM99.7004 19.5505C99.3231 19.6377 99.0635 20.0511 99.3301 20.3449C99.6485 20.6789 100.221 20.5385 100.563 20.3074C100.91 20.0676 100.865 19.6404 100.895 19.295C100.514 19.4389 100.099 19.4686 99.7004 19.5505Z" fill="#2384C5"/>
<path d="M109.188 17.2144C109.964 16.9511 110.903 16.9903 111.613 17.3845C112.085 17.6583 112.229 18.1658 112.295 18.6271C111.863 18.621 111.429 18.6253 110.998 18.6149C110.93 18.369 110.791 18.0986 110.488 18.0219C110.234 17.9992 109.943 17.9661 109.728 18.1152C109.357 18.3454 109.271 18.7727 109.256 19.1442C109.251 19.5139 109.29 19.9237 109.58 20.2159C109.809 20.4504 110.205 20.426 110.523 20.392C110.836 20.2804 110.925 19.9682 110.994 19.7092C111.417 19.711 111.842 19.7083 112.266 19.7153C112.25 20.3179 111.811 20.8646 111.227 21.162C110.554 21.4384 109.752 21.4227 109.07 21.1812C108.076 20.7818 107.861 19.6988 107.969 18.8416C108.041 18.1745 108.443 17.4752 109.188 17.2144Z" fill="#2384C5"/>
<path d="M113.772 17.1943C114.249 16.992 114.798 17.0478 115.312 17.06C115.796 17.1236 116.324 17.2815 116.608 17.6547C116.784 17.8727 116.815 18.1447 116.873 18.3994C116.477 18.4046 116.08 18.3872 115.685 18.422C115.556 18.2363 115.451 18.0009 115.184 17.9398C114.824 17.8308 114.261 17.8282 114.09 18.1901C114.088 18.3034 114.145 18.4203 114.277 18.463C115.046 18.7377 115.984 18.6932 116.634 19.1999C117.253 19.7222 117.051 20.7145 116.313 21.0764C115.531 21.4426 114.573 21.4365 113.738 21.2177C113.099 21.0459 112.657 20.4695 112.696 19.8896C113.1 19.8791 113.507 19.9053 113.911 19.86C113.992 20.0108 114.049 20.1748 114.163 20.3125C114.531 20.5515 115.046 20.5549 115.467 20.432C115.725 20.3483 115.811 20.0152 115.533 19.9018C114.789 19.608 113.905 19.6298 113.22 19.2129C112.909 19.0202 112.823 18.6706 112.853 18.3566C112.819 17.843 113.252 17.3887 113.772 17.1943Z" fill="#2384C5"/>
<path d="M106.057 17.1384C106.476 17.1384 106.896 17.1358 107.316 17.1428C107.293 18.5101 107.332 19.8774 107.298 21.2447C106.887 21.2447 106.476 21.2385 106.066 21.2385C106.061 19.8721 106.08 18.5048 106.057 17.1384Z" fill="#2384C5"/>
<path d="M0.0051286 19.6594C3.44607 19.6795 6.888 19.6498 10.3299 19.676C10.3379 20.3422 10.302 21.0093 10.3918 21.6729C6.92793 21.6729 3.46403 21.6729 0.000137087 21.6729C0.00213357 21.0014 -0.00385557 20.33 0.0051286 19.6594Z" fill="#2384C5"/>
<path d="M12.8242 19.6619C18.5961 19.6637 24.3679 19.6768 30.1397 19.6584C30.1607 20.3299 30.1447 21.0013 30.1497 21.6728C24.9568 21.6736 19.764 21.671 14.5711 21.6736C14.2447 21.7303 14.1499 21.4068 13.9902 21.2315C13.6018 20.7083 13.2045 20.1895 12.8242 19.6619Z" fill="#2384C5"/>
<path d="M32.9465 19.6594C36.3875 19.683 39.8294 19.6472 43.2703 19.6751C43.2793 20.3405 43.2664 21.0058 43.2743 21.6711C39.8304 21.6755 36.3865 21.672 32.9415 21.6729C32.9435 21.0014 32.9375 20.33 32.9465 19.6594Z" fill="#2384C5"/>
<path d="M46.1602 19.6628C52.9182 19.6777 59.6753 19.6489 66.4324 19.675C66.4414 20.3404 66.4284 21.0057 66.4364 21.671C60.0477 21.6745 53.6579 21.6737 47.2692 21.671C46.8739 21.0136 46.4107 20.3788 46.1602 19.6628Z" fill="#2384C5"/>
<path d="M73.2867 22.3862C74.0025 22.1725 74.7991 22.1969 75.5108 22.4123C76.3793 22.673 77.0072 23.4273 77.0531 24.2252C76.6039 24.1729 76.1437 24.2391 75.7005 24.186C75.5587 23.9366 75.4829 23.6375 75.1984 23.4753C74.6623 23.1727 73.8418 23.1744 73.4045 23.6192C72.9623 24.0264 72.8585 24.6237 72.8705 25.1643C72.8575 25.6771 72.9613 26.2465 73.4075 26.6153C73.8537 27.0295 74.6583 27.0792 75.1734 26.7331C75.4779 26.5604 75.5378 26.2238 75.7015 25.964C76.1357 25.9012 76.5889 25.9648 77.0301 25.9517C76.9363 26.6781 76.4492 27.374 75.7035 27.721C74.8999 28.0951 73.9047 28.0724 73.0751 27.7751C72.3274 27.4995 71.8183 26.8726 71.6087 26.2038C71.4051 25.3876 71.3901 24.5042 71.7445 23.7177C72.015 23.1108 72.579 22.6042 73.2867 22.3862Z" fill="#2384C5"/>
<path d="M88.0416 22.6825C88.4579 22.6651 88.8752 22.6756 89.2934 22.6773C89.2914 23.054 89.2904 23.4316 89.2944 23.8092C89.541 23.8127 89.7886 23.8074 90.0361 23.8031C90.0451 24.0708 90.0451 24.3402 90.0251 24.6079C89.7826 24.5983 89.542 24.5905 89.3014 24.5844C89.2834 25.241 89.2994 25.8993 89.2874 26.5568C89.2924 26.7024 89.2695 26.8594 89.3473 26.9954C89.5749 27.0478 89.8125 27.0329 90.0461 27.0486C90.0421 27.3181 90.0421 27.5875 90.0341 27.857C89.4901 27.9171 88.8961 27.9634 88.392 27.7349C88.1235 27.6119 88.0456 27.3329 88.0466 27.0887C88.0426 26.3266 88.0486 25.5636 88.0466 24.8015C88.1255 24.4562 87.6194 24.6288 87.4028 24.5896C87.3958 24.3306 87.3938 24.0725 87.3948 23.8144C87.6034 23.7891 87.85 23.8737 88.0376 23.7664C88.0606 23.4054 88.0406 23.0435 88.0416 22.6825Z" fill="#2384C5"/>
<path d="M0 22.7192C3.47588 22.7201 6.95275 22.7184 10.4286 22.7201C10.4306 23.1849 10.4446 23.6505 10.4166 24.1153C6.94477 24.1127 3.47288 24.1153 0 24.1144C0 23.6488 0 23.184 0 22.7192Z" fill="#2384C5"/>
<path d="M15.0957 22.7569C15.483 22.6976 15.8783 22.722 16.2696 22.7194C20.8965 22.7194 25.5223 22.7194 30.1482 22.7194C30.1482 23.1841 30.1482 23.6498 30.1482 24.1146C25.4844 24.1181 20.8216 24.1085 16.1578 24.1189C15.7855 23.6759 15.487 23.1885 15.0957 22.7569Z" fill="#2384C5"/>
<path d="M32.9453 22.7192C36.3922 22.7192 39.8392 22.7183 43.2861 22.7201C43.2681 23.184 43.2751 23.6479 43.2781 24.1127C39.8342 24.117 36.3902 24.1135 32.9453 24.1144C32.9453 23.6488 32.9453 23.184 32.9453 22.7192Z" fill="#2384C5"/>
<path d="M48.1055 22.7567C48.4409 22.7052 48.7823 22.7166 49.1217 22.7192C54.8965 22.7201 60.6703 22.7183 66.4452 22.7201C66.4272 23.184 66.4342 23.6479 66.4372 24.1126C60.7901 24.1196 55.1431 24.1083 49.497 24.1179C48.9779 23.7089 48.5756 23.2049 48.1055 22.7567Z" fill="#2384C5"/>
<path d="M77.7441 24.7135C78.0845 24.0072 79.0019 23.6078 79.8554 23.6732C80.5392 23.6418 81.2609 23.8685 81.6762 24.3612C82.1144 24.8574 82.1923 25.5131 82.1563 26.12C81.0253 26.1122 79.8943 26.1357 78.7643 26.1113C78.7903 26.4619 78.9629 26.8525 79.3742 26.9772C79.8803 27.2135 80.5641 27.0461 80.8337 26.5979C81.2629 26.6014 81.6921 26.5953 82.1214 26.6118C81.9537 27.2318 81.3677 27.7367 80.6629 27.8867C79.8344 28.0794 78.8841 27.9643 78.2073 27.4865C77.7651 27.1813 77.5514 26.6842 77.5175 26.2038C77.5115 25.7032 77.4696 25.1731 77.7441 24.7135ZM79.3203 24.6751C79.0089 24.8051 78.8841 25.1068 78.7863 25.3745C79.472 25.3841 80.1598 25.3945 80.8466 25.3649C80.8057 24.7283 79.9282 24.3917 79.3203 24.6751Z" fill="#2384C5"/>
<path d="M84.3523 23.852C84.9692 23.5729 85.7648 23.6113 86.3448 23.9444C86.7651 24.1877 86.8729 24.6612 86.8998 25.071C86.8968 25.9875 86.8978 26.9048 86.8948 27.8213C86.4636 27.8161 86.0323 27.8169 85.6011 27.8213C85.6001 27.0513 85.6001 26.2814 85.6021 25.5114C85.6031 25.2943 85.5891 25.0675 85.4753 24.8705C85.3555 24.676 85.087 24.6324 84.8724 24.56C84.6059 24.6237 84.2784 24.6507 84.1237 24.8801C83.981 25.0937 83.8921 25.3405 83.9001 25.5899C83.9021 26.3328 83.9041 27.0766 83.9001 27.8204C83.4838 27.8169 83.0686 27.8265 82.6543 27.8135C82.6573 26.4636 82.6543 25.1146 82.6553 23.7656C83.0516 23.7656 83.4479 23.7656 83.8452 23.7656C83.8532 23.9322 83.8632 24.0987 83.8831 24.2653C84.0438 24.1319 84.1656 23.9601 84.3523 23.852Z" fill="#2384C5"/>
<path d="M92.5645 23.7953C92.826 23.6654 93.1325 23.6776 93.4239 23.6619C93.4429 24.0508 93.4359 24.4397 93.4339 24.8286C93.3012 24.8042 93.1704 24.778 93.0406 24.7501C92.6253 24.8016 92.1532 24.9507 92.0244 25.3405C91.8507 26.1575 91.9765 26.9938 91.9425 27.8195C91.5243 27.8178 91.107 27.8169 90.6908 27.823C90.6848 26.4723 90.7167 25.1207 90.6758 23.7709C91.0741 23.7639 91.4734 23.7656 91.8727 23.7639C91.8837 23.9688 91.8906 24.1746 91.9106 24.3795C92.0893 24.1563 92.27 23.9113 92.5645 23.7953Z" fill="#2384C5"/>
<path d="M94.1702 24.3255C94.6174 23.8503 95.3441 23.6244 96.0369 23.6733C96.7866 23.6428 97.5732 23.9506 97.9525 24.5331C98.3239 24.9961 98.2889 25.5821 98.2799 26.1201C97.1539 26.1245 96.0279 26.1079 94.9029 26.1349C94.9438 26.4872 95.1465 26.85 95.5418 26.9877C96.0319 27.2057 96.7087 27.0549 96.9603 26.6119C97.3915 26.598 97.8237 26.5953 98.256 26.6032C98.1252 27.2476 97.4983 27.7516 96.7816 27.8955C96.0758 28.0402 95.2942 27.9949 94.6593 27.6679C94.0903 27.4133 93.7539 26.8761 93.678 26.3364C93.5632 25.6483 93.6461 24.8792 94.1702 24.3255ZM94.9378 25.3806C95.6206 25.3815 96.3034 25.3833 96.9862 25.3772C96.9822 24.8636 96.3933 24.5165 95.8422 24.5836C95.3401 24.5906 95.0347 24.9917 94.9378 25.3806Z" fill="#2384C5"/>
<path d="M0.0112302 25.1138C3.49409 25.1156 6.97696 25.1243 10.4588 25.1104C10.5457 25.4557 10.5367 25.8097 10.5397 26.1611C7.02987 26.1777 3.52005 26.1524 0.0112302 26.1733C-0.0037434 25.8202 -0.0037434 25.467 0.0112302 25.1138Z" fill="#2384C5"/>
<path d="M16.9141 25.1128C21.3263 25.1294 25.7395 25.0971 30.1517 25.1294C30.1477 25.4782 30.1567 25.8278 30.1328 26.1766C26.0769 26.1505 22.0201 26.1731 17.9632 26.1653C17.8514 26.1531 17.6977 26.1932 17.6298 26.0886C17.3743 25.7729 17.1486 25.4398 16.9141 25.1128Z" fill="#2384C5"/>
<path d="M32.9521 25.1146C36.3921 25.1173 39.832 25.1199 43.271 25.1138C43.28 25.4643 43.274 25.8157 43.278 26.1663C39.837 26.1715 36.3961 26.1541 32.9561 26.175C32.9362 25.8218 32.9382 25.4678 32.9521 25.1146Z" fill="#2384C5"/>
<path d="M50.8047 25.1407C52.337 25.0849 53.8733 25.132 55.4066 25.1163C59.0821 25.1154 62.7576 25.1189 66.4332 25.1146C66.4391 25.4651 66.4342 25.8157 66.4382 26.1671C61.8582 26.1645 57.2793 26.1671 52.6994 26.1653C52.5476 26.1706 52.3939 26.147 52.2741 26.0607C51.78 25.759 51.2599 25.4895 50.8047 25.1407Z" fill="#2384C5"/>
<path d="M54.8984 27.1499C58.7407 27.1918 62.5859 27.1482 66.4301 27.1726C66.4301 27.3723 66.4361 27.5728 66.4381 27.7734C63.3236 27.7795 60.2091 27.7786 57.0946 27.7743C56.3329 27.6809 55.5693 27.4795 54.8984 27.1499Z" fill="#2384C5"/>
<path d="M0.00853134 27.1579C3.53033 27.184 7.05212 27.1736 10.5729 27.157C10.5829 27.3907 10.5999 27.627 10.5639 27.8607C7.04613 27.872 3.52633 27.8589 0.00753365 27.8677C0.00254244 27.6305 0.00254189 27.3942 0.00853134 27.1579Z" fill="#2384C5"/>
<path d="M18.4648 27.1797C22.354 27.15 26.2461 27.1962 30.1363 27.157C30.1463 27.3915 30.1632 27.6279 30.1273 27.8616C26.4348 27.8677 22.7403 27.8659 19.0468 27.8624C18.7833 27.7046 18.6605 27.4011 18.4648 27.1797Z" fill="#2384C5"/>
<path d="M32.9414 27.1744C36.3853 27.1709 39.8293 27.1656 43.2732 27.1761C43.2742 27.4089 43.2752 27.6409 43.2722 27.8737C39.8313 27.8554 36.3893 27.8667 32.9484 27.8676C32.9434 27.6365 32.9414 27.4054 32.9414 27.1744Z" fill="#2384C5"/>
</g>
<defs>
<clipPath id="clip0_40000331_64132">
<rect width="117" height="28" fill="white"/>
</clipPath>
</defs>
</svg>
