<svg width="149" height="40" viewBox="0 0 149 40" fill="none" xmlns="http://www.w3.org/2000/svg">
<path d="M11.906 23.9447C11.906 21.8448 11.8966 19.7461 11.9095 17.6463C11.9165 16.3894 13.0844 15.5192 14.2653 15.8656C15.0248 16.0879 15.5596 16.8021 15.5608 17.6273C15.5655 20.8777 15.5632 24.1291 15.5632 27.3794C15.5632 27.5012 15.5632 27.623 15.5632 27.7448C15.5632 27.9411 15.5573 28.1421 15.8405 28.135C16.1261 28.1279 16.1003 27.9151 16.1003 27.7271C16.1015 25.736 16.0968 23.7449 16.1038 21.7538C16.1073 20.7535 16.6773 20.0015 17.5503 19.81C18.6797 19.5629 19.7388 20.4023 19.7435 21.5693C19.7528 23.5876 19.7435 25.6059 19.7493 27.6242C19.7493 27.8122 19.6768 28.0498 19.96 28.1267C20.2888 28.2166 20.4445 28.0889 20.4457 27.707C20.4492 26.2846 20.4421 24.8622 20.4503 23.4398C20.4562 22.4656 20.9676 21.7963 21.8079 21.6296C22.8108 21.4298 23.7471 22.1747 23.7576 23.2069C23.7728 24.6423 23.7635 26.0788 23.7646 27.5142C23.7646 27.623 23.7646 27.7306 23.767 27.8394C23.7705 27.9848 23.7962 28.1161 23.9776 28.1243C24.1848 28.1338 24.2175 27.9919 24.2187 27.8287C24.2211 27.1513 24.2058 26.4738 24.2281 25.7974C24.2503 25.1519 24.5499 24.6411 25.1339 24.3692C25.7097 24.1008 26.2866 24.154 26.8004 24.5607C27.1691 24.8527 27.3762 25.2417 27.3774 25.717C27.3809 27.6266 27.4452 29.5408 27.3504 31.4456C27.272 33.0264 26.5897 34.4346 25.6067 35.6548C23.8079 37.8871 21.4662 39.099 18.6258 39.3851C16.5813 39.5908 14.5614 39.5968 12.5695 39.0139C8.75901 37.8989 6.44649 35.2942 5.31247 31.5331C5.12873 30.9265 4.97542 30.307 4.98478 29.6602C4.99649 28.7664 5.57812 28.0782 6.41723 27.9836C7.27506 27.8879 8.07907 28.4743 8.22769 29.3575C8.39505 30.3531 8.65836 31.312 9.11595 32.2129C9.30788 32.5925 9.58992 32.8656 9.99485 32.998C10.6994 33.2298 11.2424 32.9956 11.5443 32.3111C11.8568 31.6016 11.8884 30.8355 11.8966 30.08C11.9165 28.0345 11.9036 25.989 11.9036 23.9447H11.906Z" fill="#F68200"/>
<path d="M4.98438 15.5977C4.98438 12.4408 4.98438 9.28388 4.98438 6.12816C4.98438 2.65794 7.60585 0.00827651 11.0489 0.00354708C14.4814 -0.00118236 17.9151 -0.00118236 21.3476 0.00354708C24.7613 0.00827651 27.3793 2.65912 27.384 6.11871C27.391 11.0089 27.3875 15.9004 27.3887 20.7906C27.3887 21.7613 27.0247 22.142 26.0545 22.1503C24.8643 22.1609 25.0363 22.252 25.0352 21.1489C25.0282 16.1226 25.0352 11.0964 25.0246 6.07023C25.0211 4.23639 23.866 2.8152 22.1036 2.44275C21.8438 2.38837 21.5711 2.38364 21.3043 2.38364C17.8987 2.38009 14.4919 2.37536 11.0863 2.38364C8.89436 2.38955 7.35073 3.95617 7.34605 6.18373C7.33434 10.8848 7.35307 15.5859 7.32147 20.2869C7.3086 22.2508 7.26998 24.2147 7.28051 26.1774C7.28168 26.5073 7.15295 26.6516 6.84516 26.6669C6.63099 26.6776 6.41683 26.6988 6.20266 26.6929C5.35185 26.6728 4.98672 26.2945 4.98672 25.4325C4.98555 22.1539 4.98672 18.8752 4.98672 15.5965L4.98438 15.5977Z" fill="#4473C1"/>
<path d="M13.7025 10.7324C14.9676 10.7324 15.9553 11.7209 15.9553 12.9884C15.9553 14.2275 14.9594 15.236 13.7329 15.2384C12.4597 15.2408 11.5 14.2689 11.5 12.9754C11.5 11.7067 12.4561 10.7324 13.7025 10.7324Z" fill="#F68200"/>
<path d="M16.1808 4.06691C17.1322 4.06691 18.0849 4.06336 19.0363 4.06691C19.577 4.06927 19.8906 4.34831 19.9012 4.81416C19.9105 5.26464 19.5782 5.56259 19.0433 5.56259C17.1533 5.56496 15.2621 5.56496 13.3721 5.55905C12.7612 5.55786 12.4487 5.27646 12.4697 4.77396C12.4885 4.33885 12.7834 4.07164 13.2843 4.06691C14.2498 4.05863 15.2153 4.06455 16.1808 4.06455V4.06691Z" fill="#4473C1"/>
<path d="M48.7421 30.9989C51.2678 30.9989 53.3879 30.1557 55.0428 28.4682C56.6978 26.7528 57.5401 24.5711 57.5401 21.8951V12.0364C57.5401 10.8733 56.6978 10 55.5366 10C54.4622 10 53.5616 10.9013 53.5616 12.0353V22.0404C53.5616 25.1526 51.5868 27.1599 48.7706 27.1599C45.9534 27.1599 43.9785 25.1526 43.9785 22.0404V12.0364C43.9785 10.8733 43.1647 10 42.0035 10C40.9292 10 40 10.9013 40 12.0353V21.8951C40 24.5711 40.8137 26.7517 42.4687 28.4682C44.1236 30.1557 46.2151 30.9989 48.7409 30.9989H48.7421ZM83.0535 30.9989C84.3346 30.9989 85.1032 30.0889 85.1032 28.8258C85.1032 28.6492 85.1032 28.5027 85.0746 28.4144L83.025 13.5246C82.684 11.1749 81.3447 10 79.5227 10C77.5576 10 76.3337 11.1458 75.8774 13.4352L73.4285 26.2424C73.4011 26.3889 73.3152 26.447 73.2306 26.447C73.1162 26.447 73.0305 26.3889 73.0019 26.2424L70.5244 13.4374C70.0692 11.1469 68.8442 10.0011 66.8517 10.0011C65.0286 10.0011 63.6903 11.1749 63.3494 13.5257L61.3272 28.4446C61.2986 28.5329 61.2986 28.6793 61.2986 28.8559C61.2986 30.0598 62.0397 31 63.3208 31C64.3456 31 65.1715 30.3247 65.2561 29.3847L66.8803 14.6122C66.8803 14.4647 66.9364 14.4065 67.0507 14.4065C67.1365 14.4065 67.2212 14.4647 67.2498 14.5831L69.9549 27.8576C70.6102 31.8518 75.7927 31.8518 76.447 27.8576L79.1235 14.5831C79.152 14.3473 79.494 14.3473 79.494 14.5831L81.1457 29.3556C81.2589 30.3247 82.0287 31 83.0535 31V30.9989ZM89.5435 30.9989C90.3232 30.9989 91.0729 30.5024 91.3907 29.7141L92.9783 25.0115H101.032L102.62 29.7141C102.881 30.5024 103.632 30.9698 104.439 30.9698C105.593 30.9698 106.402 30.006 106.402 28.9249C106.402 28.6621 106.374 28.4295 106.286 28.254L100.86 12.8332C100.196 10.9347 98.8971 10 97.0199 10C95.2879 10 93.8738 10.9638 93.2099 12.8322L87.7247 28.2529C87.6379 28.4575 87.6093 28.6911 87.6093 28.955C87.6093 30.0351 88.3889 30.9989 89.5435 30.9989ZM100.139 21.1176H93.8738L96.4946 14.0878C96.59 13.8229 96.7502 13.7055 97.0373 13.7055C97.2937 13.7055 97.4531 13.824 97.5485 14.0878L100.139 21.1176ZM112.149 30.9989C113.271 30.9989 114.078 30.09 114.078 28.9162V20.2647C114.078 18.0065 114.05 16.3643 114.02 15.338H114.078L121.969 29.151C122.632 30.3539 123.611 30.9407 124.85 30.9407C126.549 30.9407 127.702 29.5914 127.702 27.8609V12.0525C127.702 10.9089 126.866 10 125.743 10C124.677 10 123.785 10.9089 123.785 12.0525V20.675C123.785 21.8197 123.813 23.3736 123.87 25.3087H123.813L116.122 11.7887C115.461 10.645 114.539 10.0581 113.301 10.0581C111.428 10.0581 110.161 11.4365 110.161 13.4018V28.9162C110.161 30.0598 111.083 30.9989 112.149 30.9989ZM140.541 30.9989C142.967 30.9989 144.978 30.3065 146.574 28.8936C148.202 27.4797 149 25.691 149 23.5276V21.9425C149 20.4424 147.965 19.2611 146.219 19.2611H142.345C141.25 19.2611 140.392 20.0687 140.392 21.1348C140.392 22.1449 141.28 23.0096 142.345 23.0096H145.007V23.702C145.007 25.7502 143.35 27.3365 140.511 27.3365C137.76 27.3365 135.926 25.3464 135.601 22.4335C135.483 21.25 135.483 20.0106 135.601 18.7119C135.927 15.6837 137.672 13.7507 140.511 13.7507C142.433 13.7507 143.854 14.5584 144.829 16.1737C145.274 16.7799 145.806 17.0965 146.456 17.0965C147.521 17.0965 148.408 16.2318 148.408 15.2228C148.408 14.7888 148.29 14.385 148.083 14.0684C146.574 11.5012 143.942 10.0011 140.511 10.0011C138.055 10.0011 135.985 10.7797 134.329 12.3379C132.702 13.895 131.756 15.857 131.549 18.2219C131.43 19.7219 131.43 21.25 131.549 22.8082C131.756 25.145 132.673 27.1049 134.329 28.6632C135.985 30.2214 138.056 31 140.541 31V30.9989Z" fill="#4473C1"/>
</svg>
